<svg width="40" height="40" viewBox="0 0 40 40" fill="none" xmlns="http://www.w3.org/2000/svg">
<g id="Group 1171278152">
<path id="Background" d="M28.2812 0H11.7188C5.24666 0 0 5.24666 0 11.7188V28.2812C0 34.7533 5.24666 40 11.7188 40H28.2812C34.7533 40 40 34.7533 40 28.2812V11.7188C40 5.24666 34.7533 0 28.2812 0Z" fill="#681E65"/>
<path id="Vector" d="M35.4688 22.1719C35.4688 25.8992 32.4477 28.9203 28.7203 28.9203H22.6898V22.9469L22.8945 23.1516C23.3586 23.6156 23.975 23.8711 24.6305 23.8711C25.2859 23.8711 25.9031 23.6156 26.3664 23.1516C27.3234 22.1945 27.3234 20.6367 26.3664 19.6789L21.9703 15.2828C21.5063 14.8187 20.8898 14.5633 20.2344 14.5633C19.5789 14.5633 18.9617 14.8187 18.4984 15.2828L14.1023 19.6789C13.1453 20.6359 13.1453 22.1937 14.1023 23.1516C14.5664 23.6156 15.1828 23.8711 15.8383 23.8711C16.4937 23.8711 17.1109 23.6156 17.5742 23.1516L17.7789 22.9469V28.9203H10.8078C7.6 28.9203 5 26.3203 5 23.1125C5 20.7836 6.37109 18.7758 8.35 17.85C8.13516 17.3594 8.01562 16.8187 8.01562 16.2492C8.01562 14.0406 9.80625 12.25 12.0148 12.25C12.5852 12.25 13.1273 12.3703 13.618 12.5852C14.8766 9.87734 17.6195 8 20.8023 8C25.0094 8 28.4492 11.2812 28.7055 15.4234H28.7211C32.4484 15.4234 35.4695 18.4445 35.4695 22.1719H35.4688ZM14.6547 22.5992C15.3086 23.2531 16.3688 23.2531 17.0219 22.5992L18.5602 21.0609V31.093C18.5602 32.0172 19.3094 32.7672 20.2344 32.7672C21.1586 32.7672 21.9086 32.018 21.9086 31.093V21.0609L23.4469 22.5992C24.1008 23.2531 25.1609 23.2531 25.8141 22.5992C26.468 21.9453 26.468 20.8852 25.8141 20.232L21.418 15.8359C20.7641 15.182 19.7039 15.182 19.0508 15.8359L14.6547 20.232C14.0008 20.8859 14.0008 21.9461 14.6547 22.5992Z" fill="white"/>
</g>
</svg>
