<svg width="20" height="20" viewBox="0 0 20 20" fill="none" xmlns="http://www.w3.org/2000/svg">
<g clip-path="url(#clip0_8_1162)">
<path fill-rule="evenodd" clip-rule="evenodd" d="M10 20C4.47803 20 0 15.522 0 10C0 4.47803 4.47803 0 10 0C15.522 0 20 4.47803 20 10C20 15.522 15.522 20 10 20ZM10 3.49559C12.7356 3.49559 14.9531 5.71315 14.9531 8.44874C14.9531 11.1843 10 16.5043 10 16.5043C10 16.5043 5.04685 11.1843 5.04685 8.44874C5.04685 5.71315 7.26441 3.49559 10 3.49559ZM10 6.48079C11.0372 6.48079 11.8783 7.32189 11.8783 8.35913C11.8783 9.3963 11.0372 10.2374 10 10.2374C8.96283 10.2374 8.12173 9.3963 8.12173 8.35913C8.12173 7.32189 8.96283 6.48079 10 6.48079Z" fill="#080515" fill-opacity="0.4"/>
</g>
<defs>
<clipPath id="clip0_8_1162">
<rect width="20" height="20" fill="white"/>
</clipPath>
</defs>
</svg>
