<svg width="149" height="52" viewBox="0 0 149 52" fill="none" xmlns="http://www.w3.org/2000/svg">
<path d="M33.0127 20.5597V21.9781H28.2053C27.9805 21.9763 27.7654 21.8877 27.6058 21.7314C27.5419 21.665 27.4873 21.5903 27.4435 21.5094L26.1822 19.1166L25.5703 17.9325L24.5463 15.9961L23.0352 20.4364L22.1236 23.1499L20.063 29.1936L19.1514 31.8948L18.9516 32.4745C18.8929 32.6423 18.784 32.7886 18.6394 32.8939C18.4976 32.9957 18.3275 33.0517 18.1523 33.0542H17.99C17.8258 33.0308 17.673 32.9575 17.5529 32.8445C17.4303 32.7266 17.3437 32.577 17.3031 32.4128L17.2157 32.0305L16.4414 28.7866L16.1043 27.3188L15.2301 23.6186L14.8929 22.1631L14.1186 18.9069L13.769 17.4392L12.9697 14.0226L12.6326 12.5672L12.5576 12.2958L12.3203 12.8755L10.9841 15.9961L8.64883 21.4478C8.59278 21.6071 8.48242 21.7423 8.33663 21.8301C8.19842 21.9281 8.03218 21.9799 7.86208 21.9781H3.52148V20.5597H7.49992L8.31165 18.6356L9.62291 15.5274L11.9332 10.1497C11.9943 9.97941 12.1135 9.83549 12.2704 9.74264C12.4217 9.6438 12.6014 9.59619 12.7824 9.60697C12.9668 9.62437 13.1413 9.6976 13.2819 9.81665C13.4116 9.94101 13.5025 10.0993 13.5442 10.273L13.8189 11.3954L14.1561 12.8509L14.9553 16.2551L15.305 17.7228L16.0793 20.9667L16.4165 22.4345L17.2906 26.1224L17.6278 27.5902L18.2272 30.1433L19.8507 25.3947L20.7623 22.6812L23.1101 15.811L23.6221 14.2816C23.6748 14.1208 23.7748 13.9791 23.9094 13.8746C24.0423 13.7724 24.2033 13.7122 24.3714 13.7019C24.4861 13.6938 24.6012 13.7107 24.7086 13.7512C24.8189 13.789 24.9207 13.8477 25.0083 13.9239C25.0909 13.9892 25.1553 14.074 25.1956 14.1706L26.6193 16.8841L27.2562 18.0682L28.555 20.5597H33.0127Z" fill="url(#paint0_linear_57_679)"/>
<path d="M39.1504 40.6457L37.964 41.8175L38.3511 42.1998C38.8371 41.9128 39.2894 41.5737 39.6998 41.1884L39.1504 40.6457ZM41.6855 38.1419L40.4991 39.3137L40.9237 39.7454C41.2489 39.2589 41.517 38.7375 41.7229 38.1912L41.6855 38.1419ZM34.2925 1.63281H7.91749C5.81865 1.63607 3.80673 2.461 2.32263 3.9268C0.838525 5.3926 0.00330266 7.37971 0 9.45267V35.5024C0.00330266 37.5754 0.838525 39.5625 2.32263 41.0283C3.80673 42.4941 5.81865 43.319 7.91749 43.3223H29.497C29.3321 43.2838 29.1806 43.2025 29.0582 43.0867C28.9359 42.9709 28.8471 42.8248 28.8013 42.6637C28.7554 42.5026 28.754 42.3323 28.7973 42.1704C28.8406 42.0086 28.927 41.8612 29.0474 41.7435L29.7593 41.0404C29.8461 40.9502 29.9508 40.8785 30.0668 40.8297C30.1827 40.7809 30.3076 40.7561 30.4336 40.7568C30.6212 40.7579 30.8043 40.814 30.9596 40.9178C31.115 41.0217 31.2357 41.1687 31.3065 41.3402C31.3774 41.5118 31.3951 41.7003 31.3575 41.8818C31.32 42.0633 31.2288 42.2298 31.0955 42.3602L30.3837 43.0632C30.2557 43.1951 30.0902 43.2854 29.9091 43.3223H34.2925C34.5473 43.3242 34.8019 43.3078 35.0542 43.2729C34.8609 42.8977 34.578 42.5747 34.2298 42.3319C33.8816 42.089 33.4788 41.9336 33.0561 41.8792C33.0825 41.5039 33.0258 41.1274 32.8899 40.7759C32.754 40.4245 32.5423 40.1065 32.2694 39.844H7.91749C6.75164 39.844 5.63355 39.3866 4.80917 38.5724C3.98479 37.7582 3.52166 36.6539 3.52166 35.5024V9.45267C3.52166 8.3012 3.98479 7.19689 4.80917 6.38268C5.63355 5.56846 6.75164 5.11104 7.91749 5.11104H34.2925C35.4573 5.1143 36.5735 5.57276 37.3971 6.38627C38.2208 7.19978 38.685 8.3022 38.6883 9.45267V32.3695L40.0495 31.0251C40.6702 30.4433 41.3998 29.9866 42.1975 29.6807V9.45267C42.1975 7.38085 41.365 5.3937 39.8829 3.92755C38.4008 2.4614 36.3902 1.63608 34.2925 1.63281ZM41.7729 33.2206L41.1734 33.8126C40.8531 34.1276 40.4392 34.3333 39.9923 34.3999C39.5453 34.4664 39.0885 34.3903 38.6883 34.1826V35.5024C38.6883 35.6504 38.6758 35.7861 38.6633 35.9341C39.1716 36.076 39.7043 36.1109 40.227 36.0366C40.7498 35.9622 41.2509 35.7802 41.6979 35.5024L42.185 35.9834C42.1975 35.8231 42.1975 35.6627 42.1975 35.5024V33.6399L41.7729 33.2206Z" fill="url(#paint1_linear_57_679)"/>
<path d="M49.4771 29.854C48.7647 29.1527 47.9172 28.5995 46.9848 28.227C46.0523 27.8545 45.0537 27.6703 44.048 27.6852C43.0423 27.7002 42.0497 27.914 41.129 28.314C40.2083 28.714 39.3781 29.2922 38.6874 30.0144L38.5875 30.1254C35.7027 26.9925 30.7199 26.8445 27.6978 29.854C26.372 31.1618 25.5894 32.9121 25.5039 34.7608C25.4184 36.6095 26.0362 38.423 27.2357 39.8447C27.4357 40.0896 27.6526 40.3204 27.8851 40.5354C27.5322 40.876 27.2831 41.3076 27.1664 41.7811C27.0496 42.2546 27.0698 42.751 27.2247 43.2137C27.3795 43.6765 27.6628 44.087 28.0423 44.3985C28.4218 44.71 28.8823 44.91 29.3712 44.9757C29.2338 46.4311 30.4951 47.7755 31.9812 47.7509C32.0686 49.3543 33.7046 50.5137 35.2781 50.082C35.7901 51.9938 38.2503 52.6599 39.6739 51.2414C40.4732 50.452 41.1101 49.9587 41.16 48.7499C42.4838 48.7253 43.6327 47.5782 43.6577 46.2584C44.9939 46.2338 46.1678 45.0867 46.1803 43.7669C47.5789 43.7423 48.7778 42.4965 48.7154 41.0904L49.4771 40.338C50.1742 39.6497 50.7271 38.8325 51.1044 37.933C51.4816 37.0336 51.6758 36.0696 51.6758 35.096C51.6758 34.1225 51.4816 33.1585 51.1044 32.259C50.7271 31.3596 50.1742 30.5424 49.4771 29.854ZM29.4961 43.3229C29.3312 43.2845 29.1796 43.2031 29.0573 43.0873C28.9349 42.9715 28.8462 42.8255 28.8003 42.6643C28.7545 42.5032 28.7531 42.3329 28.7964 42.1711C28.8397 42.0093 28.926 41.8618 29.0465 41.7441L29.7583 41.0411C29.8452 40.9509 29.9499 40.8792 30.0658 40.8304C30.1818 40.7816 30.3067 40.7568 30.4327 40.7574C30.6203 40.7586 30.8033 40.8146 30.9587 40.9185C31.1141 41.0223 31.2348 41.1693 31.3056 41.3409C31.3764 41.5125 31.3942 41.7009 31.3566 41.8825C31.3191 42.064 31.2279 42.2305 31.0946 42.3608L30.3827 43.0639C30.2548 43.1958 30.0893 43.2861 29.9082 43.3229C29.7734 43.3597 29.6309 43.3597 29.4961 43.3229ZM33.3799 45.1114L32.743 45.7281C32.6502 45.84 32.5342 45.9309 32.4028 45.9947C32.2714 46.0585 32.1276 46.0938 31.9812 46.0981C31.7284 46.0948 31.487 45.9934 31.3093 45.8156C31.1317 45.6378 31.0321 45.3981 31.0321 45.1484C31.0332 45.0259 31.0591 44.905 31.1085 44.7927C31.1578 44.6804 31.2295 44.579 31.3194 44.4946L32.0312 43.7793C32.2127 43.6072 32.4539 43.5101 32.7055 43.5079C32.8942 43.5066 33.079 43.5609 33.2363 43.6638C33.3935 43.7667 33.5162 43.9136 33.5886 44.0857C33.6609 44.2578 33.6797 44.4473 33.6426 44.63C33.6054 44.8126 33.514 44.9802 33.3799 45.1114ZM35.9899 47.5289L35.2781 48.2319C35.0993 48.4085 34.8567 48.5078 34.6037 48.5078C34.3508 48.5078 34.1082 48.4085 33.9294 48.2319C33.7505 48.0553 33.6501 47.8157 33.6501 47.5659C33.6501 47.316 33.7505 47.0765 33.9294 46.8998L34.5663 46.2831C34.7335 46.0966 34.9689 45.9834 35.2207 45.9684C35.4725 45.9534 35.72 46.0377 35.9088 46.2029C36.0975 46.3681 36.2122 46.6006 36.2274 46.8493C36.2426 47.0979 36.1572 47.3424 35.9899 47.5289ZM39.1994 49.3666L38.4876 50.0697C38.3077 50.2444 38.0655 50.3424 37.8132 50.3424C37.5609 50.3424 37.3187 50.2444 37.1388 50.0697C37.0497 49.9825 36.979 49.8788 36.9307 49.7645C36.8824 49.6501 36.8576 49.5275 36.8576 49.4036C36.8576 49.2798 36.8824 49.1571 36.9307 49.0428C36.979 48.9285 37.0497 48.8248 37.1388 48.7376L37.8632 48.0346C37.9503 47.9469 38.0543 47.8773 38.169 47.8298C38.2837 47.7823 38.4069 47.7578 38.5313 47.7578C38.6557 47.7578 38.7788 47.7823 38.8935 47.8298C39.0082 47.8773 39.1122 47.9469 39.1994 48.0346C39.3734 48.2137 39.4706 48.4523 39.4706 48.7006C39.4706 48.9489 39.3734 49.1875 39.1994 49.3666ZM46.7672 41.8305C46.5858 42.0023 46.3442 42.0983 46.0928 42.0983C45.8415 42.0983 45.5999 42.0023 45.4185 41.8305L41.722 38.1919L41.6845 38.1549L40.4982 39.3266L44.2321 43.0146C44.4093 43.1912 44.5082 43.4301 44.507 43.6788C44.5059 43.9274 44.4047 44.1655 44.2259 44.3405C44.047 44.5155 43.8051 44.6132 43.5533 44.612C43.3016 44.6108 43.0606 44.511 42.8834 44.3343L39.6989 41.2014L39.1494 40.6587L37.9631 41.8305L38.3502 42.2128L41.697 45.5061C41.7861 45.5932 41.8569 45.697 41.9051 45.8113C41.9534 45.9256 41.9783 46.0482 41.9783 46.1721C41.9783 46.296 41.9534 46.4186 41.9051 46.5329C41.8569 46.6472 41.7861 46.751 41.697 46.8381C41.6098 46.9258 41.5059 46.9954 41.3911 47.0429C41.2764 47.0904 41.1533 47.1149 41.0289 47.1149C40.9045 47.1149 40.7814 47.0904 40.6667 47.0429C40.5519 46.9954 40.448 46.9258 40.3608 46.8381C39.8663 46.3715 39.2089 46.1109 38.525 46.1104C38.3018 46.114 38.0797 46.143 37.8632 46.1968C37.5884 45.099 36.4645 44.2603 35.3281 44.2726C35.2867 43.6774 35.0375 43.1147 34.623 42.6806C34.2086 42.2465 33.6545 41.9678 33.0552 41.8921C33.088 41.4248 32.9924 40.9573 32.7785 40.5392C32.5647 40.121 32.2405 39.7676 31.8402 39.5162C31.44 39.2648 30.9784 39.1249 30.5043 39.111C30.0301 39.0972 29.561 39.2101 29.1464 39.4376C26.6488 37.2422 26.4864 33.3816 28.8842 31.0381C31.2819 28.6946 35.1657 28.8303 37.4011 31.3094L35.3281 33.3569L36.989 34.9973C37.4492 35.4581 38.0276 35.7864 38.6624 35.9471C39.1706 36.089 39.7034 36.1239 40.2261 36.0495C40.7489 35.9752 41.25 35.7932 41.697 35.5154L42.1841 35.9964L46.7672 40.5107C46.9404 40.6878 47.0372 40.9244 47.0372 41.1706C47.0372 41.4168 46.9404 41.6534 46.7672 41.8305ZM48.2908 39.1663L48.041 39.4253L47.9536 39.339L42.1965 33.6406L41.7719 33.2212L41.1725 33.8133C40.8521 34.1282 40.4383 34.334 39.9913 34.4005C39.5444 34.4671 39.0875 34.391 38.6874 34.1833C38.5012 34.0824 38.3291 33.958 38.1754 33.8133L37.7008 33.3446L40.0486 31.0257C40.6693 30.4439 41.3989 29.9873 42.1965 29.6813C47.4541 27.6832 52.8989 34.2326 48.2908 39.1663Z" fill="#772377"/>
<path d="M7.98047 37.0937C9.11848 37.0937 10.041 36.1825 10.041 35.0586C10.041 33.9346 9.11848 33.0234 7.98047 33.0234C6.84246 33.0234 5.91992 33.9346 5.91992 35.0586C5.91992 36.1825 6.84246 37.0937 7.98047 37.0937Z" fill="#5B1A5B"/>
<circle cx="33.6978" cy="21.1431" r="2.48298" fill="#551855"/>
<path d="M66.0641 11.3724C66.0641 11.6389 66.126 11.8245 66.2497 11.9292C66.383 12.0339 66.6019 12.0863 66.9065 12.0863C66.9065 12.2576 66.8779 12.4242 66.8208 12.586C66.7637 12.7478 66.6876 12.8858 66.5924 13H63.1231C63.0279 12.8858 62.9518 12.7478 62.8947 12.586C62.8376 12.4242 62.809 12.2576 62.809 12.0863C63.1231 12.0863 63.342 12.0339 63.4658 11.9292C63.599 11.8245 63.6656 11.6389 63.6656 11.3724V8.53136H60.5247V11.3724C60.5247 11.6389 60.5866 11.8245 60.7103 11.9292C60.8436 12.0339 61.0673 12.0863 61.3814 12.0863C61.3814 12.2576 61.3528 12.4242 61.2957 12.586C61.2386 12.7478 61.1624 12.8858 61.0673 13H57.5837C57.4885 12.8858 57.4124 12.7478 57.3553 12.586C57.2982 12.4242 57.2696 12.2576 57.2696 12.0863C57.5837 12.0863 57.8026 12.0339 57.9264 11.9292C58.0596 11.8245 58.1262 11.6389 58.1262 11.3724V4.66235C58.1262 4.39584 58.0596 4.21025 57.9264 4.10555C57.8026 3.99134 57.5837 3.93423 57.2696 3.93423C57.2696 3.77242 57.2982 3.61062 57.3553 3.44882C57.4124 3.28701 57.4885 3.149 57.5837 3.03479H61.0673C61.1624 3.149 61.2386 3.28701 61.2957 3.44882C61.3528 3.61062 61.3814 3.77242 61.3814 3.93423C61.0673 3.93423 60.8436 3.99134 60.7103 4.10555C60.5866 4.21025 60.5247 4.39584 60.5247 4.66235V7.33211H63.6656V4.66235C63.6656 4.39584 63.599 4.21025 63.4658 4.10555C63.3325 3.99134 63.1136 3.93423 62.809 3.93423C62.809 3.77242 62.8376 3.61062 62.8947 3.44882C62.9518 3.28701 63.0279 3.149 63.1231 3.03479H66.5924C66.6876 3.149 66.7637 3.28701 66.8208 3.44882C66.8779 3.61062 66.9065 3.77242 66.9065 3.93423C66.6019 3.93423 66.383 3.99134 66.2497 4.10555C66.126 4.21025 66.0641 4.39584 66.0641 4.66235V11.3724ZM72.2683 11.5438C72.8679 11.5438 73.4247 11.3534 73.9387 10.9727C74.0148 11.0488 74.0815 11.1631 74.1386 11.3153C74.1957 11.4676 74.2242 11.6009 74.2242 11.7151C74.2242 11.8864 74.11 12.0863 73.8816 12.3147C73.6532 12.5336 73.3343 12.724 72.925 12.8858C72.5253 13.0476 72.0732 13.1285 71.5687 13.1285C70.8644 13.1285 70.2458 12.9762 69.7128 12.6716C69.1893 12.3671 68.7848 11.9245 68.4992 11.3439C68.2137 10.7633 68.0709 10.078 68.0709 9.28803C68.0709 8.47901 68.2232 7.76993 68.5278 7.16079C68.8419 6.55164 69.2702 6.08527 69.8127 5.76166C70.3552 5.42853 70.9691 5.26197 71.6544 5.26197C72.5205 5.26197 73.2106 5.51419 73.7245 6.01864C74.2385 6.52309 74.4955 7.22265 74.4955 8.11733C74.4955 8.53612 74.4289 8.86924 74.2956 9.11671C74.1624 9.35466 73.9244 9.47363 73.5818 9.47363H70.498C70.5551 10.8537 71.1452 11.5438 72.2683 11.5438ZM71.5687 6.24707C71.2737 6.24707 71.0262 6.41363 70.8264 6.74676C70.6265 7.07037 70.517 7.61764 70.498 8.38859H71.9399C72.0922 8.38859 72.1922 8.33624 72.2398 8.23155C72.2873 8.12685 72.3111 7.96505 72.3111 7.74614C72.3111 7.18458 72.2445 6.79435 72.1113 6.57544C71.978 6.35653 71.7972 6.24707 71.5687 6.24707ZM75.6084 10.987C75.6084 10.3493 75.8178 9.84483 76.2366 9.47363C76.6554 9.10243 77.274 8.91683 78.0926 8.91683C78.3781 8.91683 78.6684 8.94539 78.9635 9.00249C79.268 9.0596 79.5155 9.13574 79.7059 9.23092V7.33211C79.7059 6.95139 79.6107 6.68013 79.4203 6.51833C79.23 6.34701 78.973 6.26135 78.6494 6.26135C78.3353 6.26135 78.0783 6.33749 77.8784 6.48978C78.0593 6.54688 78.1925 6.64682 78.2782 6.78959C78.3734 6.92284 78.4209 7.07513 78.4209 7.24645C78.4209 7.55102 78.3115 7.79848 78.0926 7.98884C77.8737 8.1792 77.5976 8.27438 77.2645 8.27438C76.9028 8.27438 76.6125 8.16968 76.3936 7.96029C76.1747 7.75089 76.0653 7.47964 76.0653 7.14651C76.0653 6.81338 76.1795 6.49929 76.4079 6.20424C76.6363 5.90919 76.9837 5.67124 77.4501 5.4904C77.926 5.30956 78.5114 5.21914 79.2062 5.21914C80.1484 5.21914 80.8623 5.41426 81.3477 5.80449C81.8331 6.1852 82.0758 6.74676 82.0758 7.48915V11.2725C82.0758 11.7294 82.2947 12.0054 82.7325 12.1006V12.5574C82.6088 12.7287 82.4042 12.862 82.1186 12.9572C81.8331 13.0523 81.5428 13.0999 81.2478 13.0999C80.6005 13.0999 80.1437 12.8763 79.8772 12.4289C79.6583 12.6193 79.3918 12.7811 79.0777 12.9143C78.7636 13.0381 78.4067 13.0999 78.0069 13.0999C77.2931 13.0999 76.7125 12.9048 76.2651 12.5146C75.8273 12.1148 75.6084 11.6056 75.6084 10.987ZM79.7059 10.3302C79.6012 10.2636 79.4727 10.2065 79.3204 10.1589C79.1776 10.1113 79.0396 10.0875 78.9064 10.0875C78.6399 10.0875 78.4209 10.1732 78.2496 10.3445C78.0783 10.5063 77.9926 10.7443 77.9926 11.0584C77.9926 11.3153 78.0783 11.5295 78.2496 11.7008C78.4209 11.8626 78.6494 11.9435 78.9349 11.9435C79.0777 11.9435 79.2157 11.9245 79.3489 11.8864C79.4917 11.8388 79.6107 11.7817 79.7059 11.7151V10.3302ZM84.5901 3.86284C84.5901 3.6249 84.5187 3.44882 84.3759 3.3346C84.2427 3.21087 83.9905 3.149 83.6193 3.149V2.57793C83.9619 2.38757 84.395 2.22577 84.9185 2.09252C85.4419 1.95927 85.8655 1.89264 86.1891 1.89264C86.4175 1.89264 86.5793 1.94023 86.6745 2.03541C86.7697 2.13059 86.8173 2.29715 86.8173 2.5351V11.4438C86.8173 11.7389 86.8744 11.9435 86.9886 12.0577C87.1123 12.1719 87.317 12.2291 87.6025 12.2291C87.6025 12.4956 87.4883 12.7525 87.2598 13H84.1332C83.9143 12.7621 83.8049 12.5051 83.8049 12.2291C84.0809 12.2291 84.2808 12.1719 84.4045 12.0577C84.5282 11.934 84.5901 11.7294 84.5901 11.4438V3.86284ZM91.6762 6.70393V10.73C91.6762 11.0155 91.7333 11.2154 91.8475 11.3296C91.9617 11.4343 92.1235 11.4867 92.3329 11.4867C92.5137 11.4867 92.7041 11.4391 92.904 11.3439C93.1039 11.2487 93.2609 11.1297 93.3751 10.987C93.4703 11.0631 93.5369 11.1773 93.575 11.3296C93.6226 11.4819 93.6464 11.6199 93.6464 11.7436C93.6464 11.9626 93.5702 12.1767 93.4179 12.3861C93.2657 12.5955 93.0372 12.7668 92.7327 12.9001C92.4281 13.0333 92.0617 13.0999 91.6333 13.0999C90.9671 13.0999 90.4293 12.9096 90.0201 12.5289C89.6203 12.1482 89.4204 11.5152 89.4204 10.6301V6.70393H88.521V5.83304C88.7685 5.79497 89.0064 5.63793 89.2348 5.36191C89.4728 5.07637 89.6727 4.72421 89.8345 4.30543C90.0058 3.87712 90.1152 3.45358 90.1628 3.03479C90.3342 3.00624 90.4912 2.99196 90.634 2.99196C90.9766 2.99196 91.2288 3.0919 91.3906 3.29177C91.562 3.48213 91.6476 3.69628 91.6476 3.93423V5.43329H93.3037C93.3037 5.71883 93.2895 5.96629 93.2609 6.17569C93.2323 6.37556 93.1705 6.55164 93.0753 6.70393H91.6762ZM102.512 12.6145C102.169 12.9286 101.645 13.0857 100.941 13.0857C99.9798 13.0857 99.4992 12.7858 99.4992 12.1862V7.58909C99.4992 7.28452 99.4135 7.05133 99.2422 6.88953C99.0804 6.71821 98.8567 6.63254 98.5712 6.63254C98.3808 6.63254 98.181 6.69441 97.9716 6.81814C97.7717 6.94188 97.6242 7.09892 97.529 7.28928V11.4581C97.529 11.7341 97.5861 11.934 97.7003 12.0577C97.8241 12.1719 98.0287 12.2291 98.3142 12.2291C98.3142 12.5241 98.2048 12.7811 97.9859 13H94.8307C94.6118 12.7811 94.5023 12.5241 94.5023 12.2291C94.7879 12.2291 94.9877 12.1719 95.1019 12.0577C95.2257 11.934 95.2875 11.7341 95.2875 11.4581V3.72008C95.2875 3.48213 95.2209 3.30605 95.0877 3.19183C94.9544 3.07762 94.7022 3.02051 94.331 3.02051V2.43516C94.6736 2.25432 95.1067 2.09728 95.6302 1.96403C96.1632 1.82126 96.5915 1.74988 96.9151 1.74988C97.134 1.74988 97.2911 1.80223 97.3862 1.90692C97.4814 2.0021 97.529 2.16866 97.529 2.40661V5.21914L97.5004 6.36129C97.7574 6.02816 98.081 5.7569 98.4713 5.54751C98.871 5.33811 99.3088 5.23342 99.7847 5.23342C100.451 5.23342 100.955 5.41426 101.298 5.77594C101.641 6.1281 101.812 6.65158 101.812 7.34638V11.3439C101.812 11.5818 101.869 11.7722 101.983 11.915C102.107 12.0577 102.278 12.1529 102.497 12.2005L102.512 12.6145ZM114.861 2.86347C115.013 3.19659 115.132 3.80098 115.218 4.67662C115.304 5.55227 115.346 6.27087 115.346 6.83242C115.223 6.88001 115.027 6.91808 114.761 6.94663C114.504 6.97519 114.271 6.98946 114.061 6.98946C114.004 6.22803 113.909 5.64269 113.776 5.23342C113.652 4.82415 113.481 4.54337 113.262 4.39109C113.043 4.2388 112.757 4.16266 112.405 4.16266H112.163V11.3153C112.163 11.5818 112.286 11.777 112.534 11.9007C112.781 12.0244 113.162 12.0863 113.676 12.0863C113.676 12.2576 113.647 12.4242 113.59 12.586C113.533 12.7478 113.452 12.8858 113.348 13H108.493C108.398 12.8858 108.322 12.7478 108.265 12.586C108.208 12.4242 108.179 12.2576 108.179 12.0863C109.255 12.0863 109.793 11.8293 109.793 11.3153V4.16266H109.479C108.479 4.16266 107.903 5.10493 107.751 6.98946C107.085 6.96091 106.657 6.90856 106.466 6.83242C106.466 6.27087 106.509 5.55227 106.595 4.67662C106.68 3.80098 106.799 3.19659 106.952 2.86347C107.389 2.86347 107.78 2.92058 108.122 3.03479H113.69C114.052 2.92058 114.442 2.86347 114.861 2.86347ZM121.138 5.24769C121.567 5.24769 121.881 5.35715 122.081 5.57606C122.281 5.79497 122.38 6.09479 122.38 6.4755C122.38 6.88477 122.271 7.21789 122.052 7.47488C121.843 7.73186 121.557 7.86035 121.195 7.86035C120.881 7.86035 120.624 7.76993 120.425 7.58909C120.234 7.40825 120.139 7.1941 120.139 6.94663C120.139 6.79435 120.153 6.67538 120.182 6.58971C119.839 6.67538 119.549 6.8229 119.311 7.0323V11.3153C119.311 11.5533 119.344 11.7341 119.411 11.8579C119.478 11.9816 119.606 12.0768 119.796 12.1434C119.996 12.2005 120.291 12.2291 120.682 12.2291C120.682 12.4004 120.662 12.5479 120.624 12.6716C120.586 12.7858 120.515 12.8953 120.41 13H116.598C116.379 12.7811 116.27 12.5241 116.27 12.2291C116.546 12.2291 116.741 12.1719 116.855 12.0577C116.979 11.934 117.041 11.7294 117.041 11.4438V7.31783C117.041 7.06085 116.97 6.88001 116.827 6.77531C116.694 6.67062 116.451 6.61827 116.099 6.61827V5.97581C116.413 5.79497 116.827 5.63793 117.341 5.50468C117.864 5.36191 118.269 5.29053 118.554 5.29053C118.783 5.29053 118.945 5.37143 119.04 5.53323C119.135 5.69503 119.182 6.01864 119.182 6.50405C119.354 6.18045 119.625 5.89015 119.996 5.63317C120.367 5.37619 120.748 5.24769 121.138 5.24769ZM130.05 11.3296C130.05 11.558 130.107 11.7484 130.221 11.9007C130.345 12.053 130.516 12.1386 130.735 12.1577V12.5574C130.583 12.7287 130.345 12.862 130.021 12.9572C129.707 13.0523 129.388 13.0999 129.065 13.0999C128.741 13.0999 128.465 13.0143 128.237 12.843C128.008 12.6716 127.856 12.4337 127.78 12.1291C127.323 12.7763 126.671 13.0999 125.824 13.0999C125.158 13.0999 124.639 12.8953 124.268 12.486C123.897 12.0768 123.711 11.5247 123.711 10.8299V6.9038C123.711 6.742 123.649 6.62779 123.525 6.56116C123.411 6.49454 123.24 6.46122 123.011 6.46122V5.83304C123.154 5.71883 123.425 5.60461 123.825 5.4904C124.234 5.37619 124.668 5.31908 125.124 5.31908C125.391 5.31908 125.586 5.33811 125.71 5.37619C125.833 5.40474 125.919 5.47136 125.967 5.57606C126.014 5.68076 126.038 5.84732 126.038 6.07575V10.8728C126.038 11.1678 126.086 11.3915 126.181 11.5438C126.286 11.6865 126.452 11.7579 126.681 11.7579C126.871 11.7579 127.057 11.7008 127.237 11.5866C127.428 11.4629 127.59 11.3153 127.723 11.144V6.9038C127.723 6.60875 127.456 6.46122 126.923 6.46122V5.83304C127.076 5.70931 127.352 5.5951 127.751 5.4904C128.161 5.37619 128.608 5.31908 129.093 5.31908C129.484 5.31908 129.741 5.36667 129.864 5.46185C129.988 5.54751 130.05 5.75214 130.05 6.07575V11.3296ZM134.637 13.1428C134.17 13.1428 133.704 13.0761 133.237 12.9429C132.781 12.8001 132.405 12.6002 132.11 12.3433C131.814 12.0863 131.667 11.7817 131.667 11.4296C131.667 11.0964 131.762 10.8299 131.952 10.6301C132.143 10.4207 132.386 10.316 132.681 10.316C132.947 10.316 133.171 10.4016 133.352 10.5729C133.542 10.7443 133.637 10.9679 133.637 11.244C133.637 11.3677 133.618 11.4771 133.58 11.5723C133.551 11.658 133.494 11.7532 133.409 11.8579C133.485 11.934 133.628 11.9959 133.837 12.0435C134.046 12.0815 134.27 12.1006 134.508 12.1006C134.832 12.1006 135.084 12.0435 135.265 11.9292C135.455 11.8055 135.55 11.6485 135.55 11.4581C135.55 11.2011 135.431 10.9822 135.193 10.8014C134.955 10.611 134.575 10.3778 134.051 10.1018C133.518 9.81627 133.114 9.58308 132.838 9.40225C132.562 9.21189 132.314 8.95966 132.095 8.64557C131.886 8.32197 131.781 7.92698 131.781 7.4606C131.781 6.81338 132.048 6.2899 132.581 5.89015C133.114 5.4904 133.851 5.29053 134.794 5.29053C135.717 5.29053 136.402 5.45709 136.849 5.79021C137.306 6.11382 137.535 6.50405 137.535 6.96091C137.535 7.24645 137.44 7.47964 137.249 7.66047C137.068 7.84131 136.845 7.93173 136.578 7.93173C136.331 7.93173 136.117 7.86035 135.936 7.71758C135.764 7.5653 135.679 7.37018 135.679 7.13223C135.679 7.0085 135.698 6.88477 135.736 6.76104C135.774 6.62779 135.826 6.51833 135.893 6.43267C135.703 6.28038 135.417 6.20424 135.036 6.20424C134.732 6.20424 134.494 6.27562 134.322 6.41839C134.151 6.56116 134.065 6.742 134.065 6.96091C134.065 7.25597 134.184 7.49867 134.422 7.68903C134.66 7.87939 135.041 8.10781 135.565 8.37432C136.059 8.6313 136.45 8.85497 136.735 9.04532C137.021 9.23568 137.268 9.48791 137.478 9.802C137.687 10.1161 137.792 10.5016 137.792 10.9584C137.792 11.7008 137.487 12.2528 136.878 12.6145C136.278 12.9667 135.531 13.1428 134.637 13.1428ZM141.841 6.70393V10.73C141.841 11.0155 141.898 11.2154 142.012 11.3296C142.126 11.4343 142.288 11.4867 142.497 11.4867C142.678 11.4867 142.869 11.4391 143.069 11.3439C143.268 11.2487 143.425 11.1297 143.54 10.987C143.635 11.0631 143.701 11.1773 143.74 11.3296C143.787 11.4819 143.811 11.6199 143.811 11.7436C143.811 11.9626 143.735 12.1767 143.583 12.3861C143.43 12.5955 143.202 12.7668 142.897 12.9001C142.593 13.0333 142.226 13.0999 141.798 13.0999C141.132 13.0999 140.594 12.9096 140.185 12.5289C139.785 12.1482 139.585 11.5152 139.585 10.6301V6.70393H138.686V5.83304C138.933 5.79497 139.171 5.63793 139.399 5.36191C139.637 5.07637 139.837 4.72421 139.999 4.30543C140.17 3.87712 140.28 3.45358 140.327 3.03479C140.499 3.00624 140.656 2.99196 140.799 2.99196C141.141 2.99196 141.393 3.0919 141.555 3.29177C141.727 3.48213 141.812 3.69628 141.812 3.93423V5.43329H143.468C143.468 5.71883 143.454 5.96629 143.425 6.17569C143.397 6.37556 143.335 6.55164 143.24 6.70393H141.841ZM65.4074 19.8635C65.5597 20.1966 65.6787 20.801 65.7643 21.6766C65.85 22.5523 65.8928 23.2709 65.8928 23.8324C65.7691 23.88 65.574 23.9181 65.3075 23.9466C65.0505 23.9752 64.8173 23.9895 64.6079 23.9895C64.5508 23.228 64.4556 22.6427 64.3224 22.2334C64.1986 21.8241 64.0273 21.5434 63.8084 21.3911C63.5895 21.2388 63.304 21.1627 62.9518 21.1627H62.7091V28.3153C62.7091 28.5818 62.8328 28.777 63.0803 28.9007C63.3278 29.0244 63.7085 29.0863 64.2224 29.0863C64.2224 29.2576 64.1939 29.4242 64.1368 29.586C64.0797 29.7478 63.9988 29.8858 63.8941 30H59.04C58.9448 29.8858 58.8686 29.7478 58.8115 29.586C58.7544 29.4242 58.7259 29.2576 58.7259 29.0863C59.8014 29.0863 60.3391 28.8293 60.3391 28.3153V21.1627H60.0251C59.0257 21.1627 58.4499 22.1049 58.2976 23.9895C57.6313 23.9609 57.203 23.9086 57.0127 23.8324C57.0127 23.2709 57.0555 22.5523 57.1411 21.6766C57.2268 20.801 57.3458 20.1966 57.4981 19.8635C57.9359 19.8635 58.3261 19.9206 58.6688 20.0348H64.2367C64.5984 19.9206 64.9886 19.8635 65.4074 19.8635ZM70.4279 28.5438C71.0276 28.5438 71.5844 28.3534 72.0983 27.9727C72.1745 28.0488 72.2411 28.1631 72.2982 28.3153C72.3553 28.4676 72.3839 28.6009 72.3839 28.7151C72.3839 28.8864 72.2696 29.0863 72.0412 29.3147C71.8128 29.5336 71.4939 29.724 71.0847 29.8858C70.6849 30.0476 70.2328 30.1285 69.7284 30.1285C69.0241 30.1285 68.4054 29.9762 67.8724 29.6716C67.3489 29.3671 66.9444 28.9245 66.6589 28.3439C66.3733 27.7633 66.2306 27.078 66.2306 26.288C66.2306 25.479 66.3828 24.7699 66.6874 24.1608C67.0015 23.5516 67.4298 23.0853 67.9723 22.7617C68.5148 22.4285 69.1288 22.262 69.814 22.262C70.6802 22.262 71.3702 22.5142 71.8842 23.0186C72.3981 23.5231 72.6551 24.2227 72.6551 25.1173C72.6551 25.5361 72.5885 25.8692 72.4552 26.1167C72.322 26.3547 72.084 26.4736 71.7414 26.4736H68.6576C68.7147 27.8537 69.3048 28.5438 70.4279 28.5438ZM69.7284 23.2471C69.4333 23.2471 69.1859 23.4136 68.986 23.7468C68.7861 24.0704 68.6767 24.6176 68.6576 25.3886H70.0996C70.2519 25.3886 70.3518 25.3362 70.3994 25.2315C70.447 25.1269 70.4708 24.965 70.4708 24.7461C70.4708 24.1846 70.4041 23.7943 70.2709 23.5754C70.1376 23.3565 69.9568 23.2471 69.7284 23.2471ZM79.4788 28.1868C79.5549 28.2725 79.6168 28.3867 79.6644 28.5295C79.7215 28.6723 79.75 28.796 79.75 28.9007C79.75 29.1101 79.6406 29.3147 79.4217 29.5146C79.2027 29.7145 78.9077 29.881 78.5365 30.0143C78.1748 30.1475 77.7798 30.2142 77.3515 30.2142C76.6567 30.2142 76.0428 30.0571 75.5098 29.743C74.9768 29.4289 74.5628 28.9768 74.2677 28.3867C73.9727 27.7966 73.8252 27.097 73.8252 26.288C73.8252 25.46 73.9822 24.7414 74.2963 24.1322C74.6199 23.5231 75.0625 23.0567 75.624 22.7331C76.1951 22.4095 76.8328 22.2477 77.5371 22.2477C78.2414 22.2477 78.7887 22.419 79.179 22.7617C79.5787 23.0948 79.7786 23.5231 79.7786 24.0466C79.7786 24.4939 79.6644 24.8461 79.4359 25.1031C79.2075 25.3505 78.9125 25.4743 78.5508 25.4743C78.2557 25.4743 78.0083 25.3648 77.8084 25.1459C77.6085 24.927 77.5086 24.6605 77.5086 24.3464C77.5086 24.137 77.5466 23.9609 77.6228 23.8181C77.6989 23.6754 77.8036 23.5469 77.9369 23.4327C77.7846 23.347 77.6466 23.3042 77.5228 23.3042C77.1992 23.3042 76.9137 23.4993 76.6662 23.8895C76.4188 24.2702 76.295 24.9032 76.295 25.7883C76.295 26.7972 76.4426 27.5254 76.7376 27.9727C77.0327 28.4105 77.4657 28.6294 78.0368 28.6294C78.3033 28.6294 78.5651 28.5914 78.822 28.5152C79.0885 28.4391 79.3074 28.3296 79.4788 28.1868ZM88.8003 29.6145C88.4576 29.9286 87.9342 30.0857 87.2298 30.0857C86.2685 30.0857 85.7879 29.7858 85.7879 29.1862V24.5891C85.7879 24.2845 85.7022 24.0513 85.5309 23.8895C85.3691 23.7182 85.1454 23.6325 84.8599 23.6325C84.6695 23.6325 84.4697 23.6944 84.2603 23.8181C84.0604 23.9419 83.9129 24.0989 83.8177 24.2893V28.4581C83.8177 28.7341 83.8748 28.934 83.989 29.0577C84.1127 29.1719 84.3174 29.2291 84.6029 29.2291C84.6029 29.5241 84.4935 29.7811 84.2745 30H81.1194C80.9005 29.7811 80.791 29.5241 80.791 29.2291C81.0765 29.2291 81.2764 29.1719 81.3906 29.0577C81.5144 28.934 81.5762 28.7341 81.5762 28.4581V20.7201C81.5762 20.4821 81.5096 20.306 81.3764 20.1918C81.2431 20.0776 80.9909 20.0205 80.6197 20.0205V19.4352C80.9623 19.2543 81.3954 19.0973 81.9189 18.964C82.4519 18.8213 82.8802 18.7499 83.2038 18.7499C83.4227 18.7499 83.5797 18.8022 83.6749 18.9069C83.7701 19.0021 83.8177 19.1687 83.8177 19.4066V22.2191L83.7891 23.3613C84.0461 23.0282 84.3697 22.7569 84.76 22.5475C85.1597 22.3381 85.5975 22.2334 86.0734 22.2334C86.7397 22.2334 87.2441 22.4143 87.5868 22.7759C87.9294 23.1281 88.1007 23.6516 88.1007 24.3464V28.3439C88.1007 28.5818 88.1578 28.7722 88.2721 28.915C88.3958 29.0577 88.5671 29.1529 88.786 29.2005L88.8003 29.6145ZM97.9455 29.6145C97.8027 29.7573 97.5457 29.8715 97.1745 29.9572C96.8129 30.0428 96.4655 30.0857 96.1323 30.0857C95.7231 30.0857 95.4185 30.0095 95.2186 29.8572C95.0283 29.7049 94.9331 29.4622 94.9331 29.1291V24.6748C94.9331 24.3036 94.8522 24.0371 94.6904 23.8753C94.5286 23.7134 94.3144 23.6325 94.0479 23.6325C93.6577 23.6325 93.3293 23.7896 93.0628 24.1037V28.4581C93.0628 28.7341 93.1199 28.934 93.2341 29.0577C93.3579 29.1815 93.5625 29.2433 93.848 29.2433C93.848 29.5289 93.7386 29.7811 93.5197 30H90.2788C90.0504 29.7716 89.9362 29.5193 89.9362 29.2433C90.2217 29.2433 90.4264 29.1815 90.5501 29.0577C90.6738 28.934 90.7357 28.7341 90.7357 28.4581V24.2893C90.7357 24.0323 90.6643 23.8515 90.5215 23.7468C90.3788 23.6325 90.1313 23.5754 89.7791 23.5754V22.933C90.0837 22.7617 90.512 22.6046 91.0641 22.4618C91.6256 22.3191 92.0492 22.2477 92.3347 22.2477C92.5536 22.2477 92.7202 22.3191 92.8344 22.4618C92.9581 22.5951 93.0295 22.8521 93.0485 23.2328C93.296 22.9282 93.6053 22.6903 93.9765 22.519C94.3477 22.3381 94.7665 22.2477 95.2329 22.2477C95.9182 22.2477 96.4226 22.4238 96.7462 22.7759C97.0794 23.1186 97.2459 23.6849 97.2459 24.4749V28.3724C97.2459 28.8388 97.4743 29.1148 97.9312 29.2005L97.9455 29.6145ZM102.476 30.1856C101.429 30.1856 100.591 29.8572 99.9632 29.2005C99.335 28.5342 99.0209 27.5872 99.0209 26.3594C99.0209 25.4838 99.1685 24.7366 99.4635 24.118C99.7681 23.4993 100.192 23.0329 100.734 22.7188C101.277 22.4047 101.905 22.2477 102.619 22.2477C103.304 22.2477 103.904 22.4 104.418 22.7046C104.941 22.9996 105.346 23.4374 105.631 24.018C105.926 24.5986 106.074 25.3029 106.074 26.131C106.074 26.9971 105.921 27.7347 105.617 28.3439C105.322 28.953 104.903 29.4147 104.36 29.7287C103.818 30.0333 103.19 30.1856 102.476 30.1856ZM102.59 29.1577C102.923 29.1577 103.171 28.9673 103.333 28.5866C103.494 28.2059 103.575 27.5016 103.575 26.4736C103.575 25.6075 103.532 24.9413 103.447 24.4749C103.361 24.0085 103.242 23.6897 103.09 23.5183C102.938 23.347 102.742 23.2613 102.504 23.2613C102.171 23.2613 101.919 23.4517 101.748 23.8324C101.586 24.2131 101.505 24.927 101.505 25.9739C101.505 26.8305 101.548 27.492 101.634 27.9584C101.719 28.4153 101.838 28.7294 101.99 28.9007C102.152 29.072 102.352 29.1577 102.59 29.1577ZM108.071 20.8628C108.071 20.6249 108 20.4488 107.857 20.3346C107.724 20.2109 107.471 20.149 107.1 20.149V19.5779C107.443 19.3876 107.876 19.2258 108.399 19.0925C108.923 18.9593 109.346 18.8926 109.67 18.8926C109.898 18.8926 110.06 18.9402 110.155 19.0354C110.251 19.1306 110.298 19.2972 110.298 19.5351V28.4438C110.298 28.7389 110.355 28.9435 110.469 29.0577C110.593 29.1719 110.798 29.2291 111.083 29.2291C111.083 29.4956 110.969 29.7525 110.741 30H107.614C107.395 29.7621 107.286 29.5051 107.286 29.2291C107.562 29.2291 107.762 29.1719 107.885 29.0577C108.009 28.934 108.071 28.7294 108.071 28.4438V20.8628ZM115.406 30.1856C114.359 30.1856 113.522 29.8572 112.894 29.2005C112.266 28.5342 111.951 27.5872 111.951 26.3594C111.951 25.4838 112.099 24.7366 112.394 24.118C112.699 23.4993 113.122 23.0329 113.665 22.7188C114.207 22.4047 114.835 22.2477 115.549 22.2477C116.235 22.2477 116.834 22.4 117.348 22.7046C117.872 22.9996 118.276 23.4374 118.562 24.018C118.857 24.5986 119.004 25.3029 119.004 26.131C119.004 26.9971 118.852 27.7347 118.547 28.3439C118.252 28.953 117.834 29.4147 117.291 29.7287C116.748 30.0333 116.12 30.1856 115.406 30.1856ZM115.521 29.1577C115.854 29.1577 116.101 28.9673 116.263 28.5866C116.425 28.2059 116.506 27.5016 116.506 26.4736C116.506 25.6075 116.463 24.9413 116.377 24.4749C116.292 24.0085 116.173 23.6897 116.02 23.5183C115.868 23.347 115.673 23.2613 115.435 23.2613C115.102 23.2613 114.85 23.4517 114.678 23.8324C114.517 24.2131 114.436 24.927 114.436 25.9739C114.436 26.8305 114.478 27.492 114.564 27.9584C114.65 28.4153 114.769 28.7294 114.921 28.9007C115.083 29.072 115.283 29.1577 115.521 29.1577ZM123.657 28.3011C124.885 28.3867 125.799 28.6104 126.398 28.9721C127.007 29.3242 127.312 29.8477 127.312 30.5425C127.312 31.0279 127.131 31.4705 126.769 31.8703C126.408 32.2795 125.927 32.5984 125.327 32.8268C124.737 33.0648 124.104 33.1837 123.429 33.1837C122.296 33.1837 121.449 32.9791 120.887 32.5698C120.326 32.1701 120.045 31.6323 120.045 30.9565C120.045 30.6044 120.159 30.2855 120.388 30C120.626 29.7049 120.963 29.486 121.401 29.3433C121.211 29.21 121.082 29.053 121.016 28.8721C120.959 28.6913 120.93 28.4676 120.93 28.2011C120.93 28.0298 120.997 27.8585 121.13 27.6872C121.263 27.5063 121.449 27.3731 121.687 27.2874C121.239 27.0495 120.887 26.7211 120.63 26.3023C120.383 25.8835 120.259 25.4314 120.259 24.946C120.259 24.4511 120.378 24.0085 120.616 23.6183C120.864 23.2185 121.22 22.9044 121.687 22.676C122.163 22.4381 122.739 22.3191 123.414 22.3191H123.429C123.771 22.3191 124.066 22.3429 124.314 22.3905C125.208 22.3905 125.822 22.3809 126.155 22.3619C126.498 22.3334 126.826 22.2953 127.141 22.2477C127.236 22.2477 127.307 22.3143 127.355 22.4476C127.412 22.5713 127.44 22.7046 127.44 22.8473C127.44 23.2756 127.255 23.4898 126.884 23.4898C126.798 23.4898 126.536 23.4041 126.098 23.2328C126.022 23.1947 125.908 23.1471 125.756 23.09C126.07 23.347 126.312 23.6421 126.484 23.9752C126.655 24.2988 126.741 24.6129 126.741 24.9175C126.741 25.8026 126.436 26.4831 125.827 26.959C125.227 27.4254 124.385 27.6586 123.3 27.6586C123.034 27.6586 122.734 27.6253 122.401 27.5587V27.6015C122.401 27.8299 122.491 27.9965 122.672 28.1012C122.853 28.1964 123.181 28.263 123.657 28.3011ZM123.543 23.2613C123.238 23.2613 123.019 23.4184 122.886 23.7325C122.762 24.0466 122.7 24.5034 122.7 25.1031C122.7 26.1786 122.981 26.7163 123.543 26.7163C123.847 26.7163 124.066 26.5545 124.2 26.2309C124.333 25.9073 124.399 25.4124 124.399 24.7461C124.399 24.2227 124.328 23.8467 124.185 23.6183C124.042 23.3803 123.828 23.2613 123.543 23.2613ZM123.9 32.013C124.338 32.013 124.661 31.9083 124.871 31.6989C125.08 31.4895 125.185 31.2278 125.185 30.9137C125.185 30.6282 125.009 30.414 124.656 30.2713C124.314 30.138 123.771 30.0095 123.029 29.8858L122.386 29.7573C122.263 29.9667 122.201 30.2427 122.201 30.5853C122.201 31.0232 122.334 31.3706 122.601 31.6276C122.867 31.8845 123.3 32.013 123.9 32.013ZM131.442 19.9063C131.442 20.3156 131.314 20.6439 131.057 20.8914C130.809 21.1293 130.476 21.2483 130.057 21.2483C129.648 21.2483 129.32 21.1293 129.072 20.8914C128.834 20.6439 128.715 20.3156 128.715 19.9063C128.715 19.5065 128.839 19.1829 129.086 18.9355C129.343 18.688 129.677 18.5643 130.086 18.5643C130.495 18.5643 130.823 18.688 131.071 18.9355C131.318 19.1829 131.442 19.5065 131.442 19.9063ZM131.171 28.4581C131.171 28.7341 131.237 28.934 131.371 29.0577C131.513 29.1719 131.728 29.2291 132.013 29.2291C132.013 29.5241 131.904 29.7811 131.685 30H128.458C128.239 29.7811 128.13 29.5241 128.13 29.2291C128.415 29.2291 128.62 29.1719 128.744 29.0577C128.877 28.934 128.944 28.7294 128.944 28.4438V24.3036C128.944 24.0371 128.877 23.8467 128.744 23.7325C128.62 23.6183 128.373 23.5612 128.001 23.5612V22.933C128.23 22.7902 128.615 22.6427 129.158 22.4904C129.71 22.3286 130.176 22.2477 130.557 22.2477C130.776 22.2477 130.933 22.3 131.028 22.4047C131.123 22.4999 131.171 22.6665 131.171 22.9044V28.4581ZM137.232 28.5438C137.831 28.5438 138.388 28.3534 138.902 27.9727C138.978 28.0488 139.045 28.1631 139.102 28.3153C139.159 28.4676 139.188 28.6009 139.188 28.7151C139.188 28.8864 139.073 29.0863 138.845 29.3147C138.617 29.5336 138.298 29.724 137.888 29.8858C137.489 30.0476 137.037 30.1285 136.532 30.1285C135.828 30.1285 135.209 29.9762 134.676 29.6716C134.153 29.3671 133.748 28.9245 133.463 28.3439C133.177 27.7633 133.034 27.078 133.034 26.288C133.034 25.479 133.187 24.7699 133.491 24.1608C133.805 23.5516 134.234 23.0853 134.776 22.7617C135.319 22.4285 135.932 22.262 136.618 22.262C137.484 22.262 138.174 22.5142 138.688 23.0186C139.202 23.5231 139.459 24.2227 139.459 25.1173C139.459 25.5361 139.392 25.8692 139.259 26.1167C139.126 26.3547 138.888 26.4736 138.545 26.4736H135.461C135.518 27.8537 136.109 28.5438 137.232 28.5438ZM136.532 23.2471C136.237 23.2471 135.99 23.4136 135.79 23.7468C135.59 24.0704 135.48 24.6176 135.461 25.3886H136.903C137.056 25.3886 137.156 25.3362 137.203 25.2315C137.251 25.1269 137.275 24.965 137.275 24.7461C137.275 24.1846 137.208 23.7943 137.075 23.5754C136.941 23.3565 136.761 23.2471 136.532 23.2471ZM143.556 30.1428C143.089 30.1428 142.623 30.0761 142.157 29.9429C141.7 29.8001 141.324 29.6002 141.029 29.3433C140.734 29.0863 140.586 28.7817 140.586 28.4296C140.586 28.0964 140.681 27.8299 140.872 27.6301C141.062 27.4207 141.305 27.316 141.6 27.316C141.866 27.316 142.09 27.4016 142.271 27.5729C142.461 27.7443 142.556 27.9679 142.556 28.244C142.556 28.3677 142.537 28.4771 142.499 28.5723C142.471 28.658 142.413 28.7532 142.328 28.8579C142.404 28.934 142.547 28.9959 142.756 29.0435C142.966 29.0815 143.189 29.1006 143.427 29.1006C143.751 29.1006 144.003 29.0435 144.184 28.9292C144.374 28.8055 144.469 28.6485 144.469 28.4581C144.469 28.2011 144.35 27.9822 144.112 27.8014C143.874 27.611 143.494 27.3778 142.97 27.1018C142.437 26.8163 142.033 26.5831 141.757 26.4022C141.481 26.2119 141.233 25.9597 141.014 25.6456C140.805 25.322 140.7 24.927 140.7 24.4606C140.7 23.8134 140.967 23.2899 141.5 22.8902C142.033 22.4904 142.77 22.2905 143.713 22.2905C144.636 22.2905 145.321 22.4571 145.769 22.7902C146.225 23.1138 146.454 23.5041 146.454 23.9609C146.454 24.2464 146.359 24.4796 146.168 24.6605C145.987 24.8413 145.764 24.9317 145.497 24.9317C145.25 24.9317 145.036 24.8604 144.855 24.7176C144.684 24.5653 144.598 24.3702 144.598 24.1322C144.598 24.0085 144.617 23.8848 144.655 23.761C144.693 23.6278 144.745 23.5183 144.812 23.4327C144.622 23.2804 144.336 23.2042 143.955 23.2042C143.651 23.2042 143.413 23.2756 143.242 23.4184C143.07 23.5612 142.985 23.742 142.985 23.9609C142.985 24.256 143.104 24.4987 143.341 24.689C143.579 24.8794 143.96 25.1078 144.484 25.3743C144.979 25.6313 145.369 25.855 145.654 26.0453C145.94 26.2357 146.187 26.4879 146.397 26.802C146.606 27.1161 146.711 27.5016 146.711 27.9584C146.711 28.7008 146.406 29.2528 145.797 29.6145C145.197 29.9667 144.45 30.1428 143.556 30.1428Z" fill="#080515"/>
<path d="M58.1299 40.8456L56.1932 37.8661H57.1367L58.6478 40.2426H58.2079L59.719 37.8661H60.6484L58.6974 40.8456H58.1299ZM58.0164 42.832V40.3349H58.8322V42.832H58.0164ZM61.7578 42.903C61.4268 42.903 61.1264 42.8249 60.8569 42.6689C60.5873 42.5081 60.3721 42.2929 60.2113 42.0233C60.0552 41.7537 59.9772 41.4534 59.9772 41.1223C59.9772 40.7913 60.0552 40.4933 60.2113 40.2284C60.3721 39.9636 60.5873 39.7531 60.8569 39.5971C61.1264 39.4363 61.4268 39.3559 61.7578 39.3559C62.0936 39.3559 62.3963 39.4339 62.6659 39.59C62.9355 39.746 63.1483 39.9589 63.3044 40.2284C63.4652 40.4933 63.5456 40.7913 63.5456 41.1223C63.5456 41.4534 63.4652 41.7537 63.3044 42.0233C63.1483 42.2929 62.9355 42.5081 62.6659 42.6689C62.3963 42.8249 62.0936 42.903 61.7578 42.903ZM61.7578 42.151C61.9517 42.151 62.122 42.1084 62.2686 42.0233C62.42 41.9334 62.5358 41.8105 62.6162 41.6544C62.7014 41.4983 62.7439 41.321 62.7439 41.1223C62.7439 40.9237 62.7014 40.7487 62.6162 40.5973C62.5311 40.446 62.4152 40.3278 62.2686 40.2426C62.122 40.1528 61.9517 40.1078 61.7578 40.1078C61.5687 40.1078 61.3984 40.1528 61.247 40.2426C61.1004 40.3278 60.9846 40.446 60.8994 40.5973C60.819 40.7487 60.7788 40.9237 60.7788 41.1223C60.7788 41.321 60.819 41.4983 60.8994 41.6544C60.9846 41.8105 61.1004 41.9334 61.247 42.0233C61.3984 42.1084 61.5687 42.151 61.7578 42.151ZM65.5921 42.903C65.3036 42.903 65.0458 42.8391 64.8188 42.7114C64.5965 42.5837 64.4216 42.4087 64.2939 42.1865C64.1709 41.9594 64.1094 41.6993 64.1094 41.4061V39.4268H64.8898V41.3706C64.8898 41.5362 64.9158 41.678 64.9678 41.7963C65.0246 41.9098 65.105 41.9973 65.209 42.0588C65.3178 42.1202 65.4455 42.151 65.5921 42.151C65.8191 42.151 65.9917 42.0848 66.11 41.9523C66.2329 41.8152 66.2944 41.6213 66.2944 41.3706V39.4268H67.0748V41.4061C67.0748 41.704 67.011 41.9665 66.8833 42.1935C66.7603 42.4158 66.5877 42.5908 66.3654 42.7185C66.1431 42.8415 65.8853 42.903 65.5921 42.903ZM67.8594 42.832V39.4268H68.6398V42.832H67.8594ZM68.6398 40.9379L68.3702 40.8031C68.3702 40.3727 68.4648 40.0251 68.654 39.7602C68.8479 39.4906 69.1388 39.3559 69.5266 39.3559C69.6968 39.3559 69.8505 39.3866 69.9877 39.4481C70.1249 39.5096 70.2526 39.6089 70.3708 39.746L69.86 40.271C69.7985 40.2048 69.7299 40.1575 69.6543 40.1291C69.5786 40.1008 69.4911 40.0866 69.3918 40.0866C69.1742 40.0866 68.9945 40.1551 68.8526 40.2923C68.7107 40.4294 68.6398 40.6446 68.6398 40.9379ZM72.3997 42.832V37.8661H73.2156V42.832H72.3997ZM75.5567 42.832V37.8661H76.3725V42.832H75.5567ZM72.9602 40.6328V39.8879H75.734V40.6328H72.9602ZM78.9258 42.903C78.5853 42.903 78.2779 42.8273 78.0036 42.676C77.734 42.5199 77.5188 42.3071 77.358 42.0375C77.2019 41.7679 77.1239 41.4652 77.1239 41.1294C77.1239 40.7936 77.2019 40.4933 77.358 40.2284C77.5141 39.9589 77.7245 39.746 77.9894 39.59C78.259 39.4339 78.5569 39.3559 78.8833 39.3559C79.2001 39.3559 79.4792 39.4292 79.7204 39.5758C79.9663 39.7224 80.1579 39.9234 80.295 40.1788C80.4369 40.4342 80.5078 40.725 80.5078 41.0514C80.5078 41.1081 80.5031 41.1673 80.4937 41.2287C80.4889 41.2855 80.4795 41.3493 80.4653 41.4203H77.6702V40.7818H80.0609L79.77 41.0372C79.7606 40.8291 79.7204 40.6541 79.6494 40.5122C79.5785 40.3703 79.4768 40.2616 79.3444 40.1859C79.2167 40.1102 79.0583 40.0724 78.8691 40.0724C78.6704 40.0724 78.4978 40.1149 78.3512 40.2001C78.2046 40.2852 78.0911 40.4058 78.0107 40.5619C77.9303 40.7132 77.8901 40.8953 77.8901 41.1081C77.8901 41.321 77.9326 41.5078 78.0178 41.6686C78.1029 41.8294 78.2235 41.9547 78.3796 42.0446C78.5356 42.1297 78.7154 42.1723 78.9187 42.1723C79.0937 42.1723 79.2545 42.1415 79.4011 42.08C79.5525 42.0186 79.6802 41.9287 79.7842 41.8105L80.2808 42.3142C80.1153 42.5081 79.9143 42.6547 79.6778 42.754C79.4413 42.8533 79.1907 42.903 78.9258 42.903ZM82.5594 42.903C82.2519 42.903 81.9729 42.8249 81.7222 42.6689C81.4763 42.5128 81.28 42.3023 81.1334 42.0375C80.9915 41.7679 80.9206 41.4676 80.9206 41.1365C80.9206 40.8007 80.9915 40.5004 81.1334 40.2355C81.28 39.966 81.4763 39.7531 81.7222 39.5971C81.9729 39.4363 82.2519 39.3559 82.5594 39.3559C82.8195 39.3559 83.0489 39.4126 83.2475 39.5261C83.4509 39.6349 83.6117 39.7862 83.7299 39.9801C83.8481 40.1741 83.9073 40.394 83.9073 40.6399V41.6189C83.9073 41.8649 83.8481 42.0848 83.7299 42.2787C83.6164 42.4726 83.458 42.6263 83.2546 42.7398C83.0512 42.8486 82.8195 42.903 82.5594 42.903ZM82.6871 42.1652C82.9755 42.1652 83.2073 42.0682 83.3823 41.8743C83.562 41.6804 83.6519 41.4321 83.6519 41.1294C83.6519 40.926 83.6117 40.7463 83.5313 40.5903C83.4509 40.4342 83.3374 40.3136 83.1907 40.2284C83.0489 40.1386 82.881 40.0937 82.6871 40.0937C82.4979 40.0937 82.33 40.1386 82.1834 40.2284C82.0415 40.3136 81.928 40.4342 81.8428 40.5903C81.7624 40.7463 81.7222 40.926 81.7222 41.1294C81.7222 41.3328 81.7624 41.5125 81.8428 41.6686C81.928 41.8246 82.0415 41.9476 82.1834 42.0375C82.33 42.1226 82.4979 42.1652 82.6871 42.1652ZM83.6022 42.832V41.9169L83.737 41.0868L83.6022 40.2639V39.4268H84.3826V42.832H83.6022ZM85.2486 42.832V37.7242H86.029V42.832H85.2486ZM87.4154 42.832V38.008H88.1957V42.832H87.4154ZM86.5995 40.1362V39.4268H89.0116V40.1362H86.5995ZM91.9126 42.832V40.8669C91.9126 40.6399 91.8393 40.4531 91.6927 40.3065C91.5508 40.1599 91.3663 40.0866 91.1393 40.0866C90.988 40.0866 90.8532 40.1197 90.735 40.1859C90.6167 40.2521 90.5245 40.3443 90.4583 40.4626C90.3921 40.5808 90.359 40.7156 90.359 40.8669L90.0539 40.6967C90.0539 40.4365 90.1107 40.2072 90.2242 40.0085C90.3377 39.8052 90.4938 39.6467 90.6924 39.5332C90.8958 39.415 91.1228 39.3559 91.3734 39.3559C91.6288 39.3559 91.8558 39.4126 92.0545 39.5261C92.2531 39.6396 92.4092 39.7981 92.5227 40.0014C92.6362 40.2001 92.693 40.4318 92.693 40.6967V42.832H91.9126ZM89.5786 42.832V37.7242H90.359V42.832H89.5786ZM97.2686 42.903C96.9091 42.903 96.5757 42.8391 96.2683 42.7114C95.9656 42.579 95.7008 42.3969 95.4737 42.1652C95.2467 41.9287 95.0717 41.6568 94.9488 41.3493C94.8258 41.0372 94.7643 40.7038 94.7643 40.349C94.7643 39.9943 94.8258 39.6633 94.9488 39.3559C95.0717 39.0437 95.2467 38.7718 95.4737 38.54C95.7008 38.3083 95.9656 38.1262 96.2683 37.9938C96.5757 37.8613 96.9091 37.7951 97.2686 37.7951C97.6706 37.7951 98.0182 37.8613 98.3114 37.9938C98.6047 38.1262 98.8648 38.3059 99.0918 38.5329L98.5385 39.0863C98.3918 38.9255 98.2121 38.8001 97.9993 38.7103C97.7912 38.6204 97.5476 38.5755 97.2686 38.5755C97.0227 38.5755 96.798 38.6181 96.5946 38.7032C96.3913 38.7883 96.2139 38.9113 96.0626 39.0721C95.916 39.2282 95.8024 39.415 95.722 39.6325C95.6416 39.8501 95.6014 40.0889 95.6014 40.349C95.6014 40.6092 95.6416 40.848 95.722 41.0656C95.8024 41.2831 95.916 41.4723 96.0626 41.6331C96.2139 41.7892 96.3913 41.9098 96.5946 41.9949C96.798 42.08 97.0227 42.1226 97.2686 42.1226C97.5713 42.1226 97.8267 42.0777 98.0348 41.9878C98.2476 41.8932 98.4273 41.7655 98.5739 41.6047L99.1273 42.1581C98.9003 42.3898 98.633 42.5719 98.3256 42.7043C98.0182 42.8368 97.6659 42.903 97.2686 42.903ZM101.071 42.903C100.763 42.903 100.484 42.8249 100.234 42.6689C99.9878 42.5128 99.7915 42.3023 99.6449 42.0375C99.503 41.7679 99.4321 41.4676 99.4321 41.1365C99.4321 40.8007 99.503 40.5004 99.6449 40.2355C99.7915 39.966 99.9878 39.7531 100.234 39.5971C100.484 39.4363 100.763 39.3559 101.071 39.3559C101.331 39.3559 101.56 39.4126 101.759 39.5261C101.962 39.6349 102.123 39.7862 102.241 39.9801C102.36 40.1741 102.419 40.394 102.419 40.6399V41.6189C102.419 41.8649 102.36 42.0848 102.241 42.2787C102.128 42.4726 101.969 42.6263 101.766 42.7398C101.563 42.8486 101.331 42.903 101.071 42.903ZM101.199 42.1652C101.487 42.1652 101.719 42.0682 101.894 41.8743C102.074 41.6804 102.163 41.4321 102.163 41.1294C102.163 40.926 102.123 40.7463 102.043 40.5903C101.962 40.4342 101.849 40.3136 101.702 40.2284C101.56 40.1386 101.392 40.0937 101.199 40.0937C101.009 40.0937 100.841 40.1386 100.695 40.2284C100.553 40.3136 100.439 40.4342 100.354 40.5903C100.274 40.7463 100.234 40.926 100.234 41.1294C100.234 41.3328 100.274 41.5125 100.354 41.6686C100.439 41.8246 100.553 41.9476 100.695 42.0375C100.841 42.1226 101.009 42.1652 101.199 42.1652ZM102.114 42.832V41.9169L102.249 41.0868L102.114 40.2639V39.4268H102.894V42.832H102.114ZM103.76 42.832V39.4268H104.541V42.832H103.76ZM104.541 40.9379L104.271 40.8031C104.271 40.3727 104.366 40.0251 104.555 39.7602C104.749 39.4906 105.039 39.3559 105.427 39.3559C105.598 39.3559 105.751 39.3866 105.888 39.4481C106.026 39.5096 106.153 39.6089 106.272 39.746L105.761 40.271C105.699 40.2048 105.631 40.1575 105.555 40.1291C105.479 40.1008 105.392 40.0866 105.292 40.0866C105.075 40.0866 104.895 40.1551 104.753 40.2923C104.611 40.4294 104.541 40.6446 104.541 40.9379ZM108.127 42.903C107.787 42.903 107.479 42.8273 107.205 42.676C106.935 42.5199 106.72 42.3071 106.559 42.0375C106.403 41.7679 106.325 41.4652 106.325 41.1294C106.325 40.7936 106.403 40.4933 106.559 40.2284C106.715 39.9589 106.926 39.746 107.191 39.59C107.46 39.4339 107.758 39.3559 108.085 39.3559C108.402 39.3559 108.681 39.4292 108.922 39.5758C109.168 39.7224 109.359 39.9234 109.496 40.1788C109.638 40.4342 109.709 40.725 109.709 41.0514C109.709 41.1081 109.704 41.1673 109.695 41.2287C109.69 41.2855 109.681 41.3493 109.667 41.4203H106.872V40.7818H109.262L108.971 41.0372C108.962 40.8291 108.922 40.6541 108.851 40.5122C108.78 40.3703 108.678 40.2616 108.546 40.1859C108.418 40.1102 108.26 40.0724 108.07 40.0724C107.872 40.0724 107.699 40.1149 107.553 40.2001C107.406 40.2852 107.292 40.4058 107.212 40.5619C107.132 40.7132 107.091 40.8953 107.091 41.1081C107.091 41.321 107.134 41.5078 107.219 41.6686C107.304 41.8294 107.425 41.9547 107.581 42.0446C107.737 42.1297 107.917 42.1723 108.12 42.1723C108.295 42.1723 108.456 42.1415 108.603 42.08C108.754 42.0186 108.882 41.9287 108.986 41.8105L109.482 42.3142C109.317 42.5081 109.116 42.6547 108.879 42.754C108.643 42.8533 108.392 42.903 108.127 42.903ZM114.117 42.903C113.758 42.903 113.425 42.8391 113.117 42.7114C112.814 42.579 112.55 42.3969 112.323 42.1652C112.096 41.9287 111.921 41.6568 111.798 41.3493C111.675 41.0372 111.613 40.7038 111.613 40.349C111.613 39.9943 111.675 39.6633 111.798 39.3559C111.921 39.0437 112.096 38.7718 112.323 38.54C112.55 38.3083 112.814 38.1262 113.117 37.9938C113.425 37.8613 113.758 37.7951 114.117 37.7951C114.519 37.7951 114.867 37.8613 115.16 37.9938C115.453 38.1262 115.714 38.3059 115.941 38.5329L115.387 39.0863C115.241 38.9255 115.061 38.8001 114.848 38.7103C114.64 38.6204 114.396 38.5755 114.117 38.5755C113.871 38.5755 113.647 38.6181 113.443 38.7032C113.24 38.7883 113.063 38.9113 112.911 39.0721C112.765 39.2282 112.651 39.415 112.571 39.6325C112.49 39.8501 112.45 40.0889 112.45 40.349C112.45 40.6092 112.49 40.848 112.571 41.0656C112.651 41.2831 112.765 41.4723 112.911 41.6331C113.063 41.7892 113.24 41.9098 113.443 41.9949C113.647 42.08 113.871 42.1226 114.117 42.1226C114.42 42.1226 114.675 42.0777 114.884 41.9878C115.096 41.8932 115.276 41.7655 115.423 41.6047L115.976 42.1581C115.749 42.3898 115.482 42.5719 115.174 42.7043C114.867 42.8368 114.515 42.903 114.117 42.903ZM118.054 42.903C117.723 42.903 117.423 42.8249 117.154 42.6689C116.884 42.5081 116.669 42.2929 116.508 42.0233C116.352 41.7537 116.274 41.4534 116.274 41.1223C116.274 40.7913 116.352 40.4933 116.508 40.2284C116.669 39.9636 116.884 39.7531 117.154 39.5971C117.423 39.4363 117.723 39.3559 118.054 39.3559C118.39 39.3559 118.693 39.4339 118.963 39.59C119.232 39.746 119.445 39.9589 119.601 40.2284C119.762 40.4933 119.842 40.7913 119.842 41.1223C119.842 41.4534 119.762 41.7537 119.601 42.0233C119.445 42.2929 119.232 42.5081 118.963 42.6689C118.693 42.8249 118.39 42.903 118.054 42.903ZM118.054 42.151C118.248 42.151 118.419 42.1084 118.565 42.0233C118.717 41.9334 118.832 41.8105 118.913 41.6544C118.998 41.4983 119.041 41.321 119.041 41.1223C119.041 40.9237 118.998 40.7487 118.913 40.5973C118.828 40.446 118.712 40.3278 118.565 40.2426C118.419 40.1528 118.248 40.1078 118.054 40.1078C117.865 40.1078 117.695 40.1528 117.544 40.2426C117.397 40.3278 117.281 40.446 117.196 40.5973C117.116 40.7487 117.075 40.9237 117.075 41.1223C117.075 41.321 117.116 41.4983 117.196 41.6544C117.281 41.8105 117.397 41.9334 117.544 42.0233C117.695 42.1084 117.865 42.151 118.054 42.151ZM120.491 42.832V39.4268H121.272V42.832H120.491ZM122.754 42.832V40.8031C122.754 40.5761 122.683 40.4011 122.541 40.2781C122.4 40.1504 122.225 40.0866 122.016 40.0866C121.875 40.0866 121.747 40.1149 121.633 40.1717C121.525 40.2284 121.437 40.3112 121.371 40.42C121.305 40.524 121.272 40.6517 121.272 40.8031L120.966 40.6328C120.966 40.3727 121.023 40.148 121.137 39.9589C121.25 39.7697 121.404 39.6231 121.598 39.519C121.792 39.4102 122.009 39.3559 122.251 39.3559C122.492 39.3559 122.709 39.4079 122.903 39.5119C123.097 39.616 123.251 39.7626 123.364 39.9518C123.478 40.141 123.535 40.368 123.535 40.6328V42.832H122.754ZM125.017 42.832V40.8031C125.017 40.5761 124.946 40.4011 124.804 40.2781C124.663 40.1504 124.488 40.0866 124.28 40.0866C124.142 40.0866 124.017 40.1149 123.904 40.1717C123.79 40.2284 123.7 40.3112 123.634 40.42C123.568 40.524 123.535 40.6517 123.535 40.8031L123.095 40.6328C123.118 40.3727 123.194 40.148 123.322 39.9589C123.449 39.7697 123.613 39.6231 123.811 39.519C124.015 39.4102 124.237 39.3559 124.478 39.3559C124.724 39.3559 124.946 39.4079 125.145 39.5119C125.344 39.616 125.502 39.7626 125.62 39.9518C125.739 40.141 125.798 40.368 125.798 40.6328V42.832H125.017ZM128.425 42.903C128.165 42.903 127.933 42.8486 127.73 42.7398C127.526 42.6263 127.365 42.4726 127.247 42.2787C127.134 42.0848 127.077 41.8649 127.077 41.6189V40.6399C127.077 40.394 127.136 40.1741 127.254 39.9801C127.373 39.7862 127.533 39.6349 127.737 39.5261C127.94 39.4126 128.169 39.3559 128.425 39.3559C128.732 39.3559 129.009 39.4363 129.255 39.5971C129.506 39.7531 129.702 39.966 129.844 40.2355C129.99 40.5004 130.064 40.8007 130.064 41.1365C130.064 41.4676 129.99 41.7679 129.844 42.0375C129.702 42.3023 129.506 42.5128 129.255 42.6689C129.009 42.8249 128.732 42.903 128.425 42.903ZM128.297 42.1652C128.486 42.1652 128.652 42.1226 128.794 42.0375C128.94 41.9476 129.054 41.8246 129.134 41.6686C129.219 41.5125 129.262 41.3328 129.262 41.1294C129.262 40.926 129.219 40.7463 129.134 40.5903C129.054 40.4342 128.94 40.3136 128.794 40.2284C128.652 40.1386 128.486 40.0937 128.297 40.0937C128.108 40.0937 127.94 40.1386 127.793 40.2284C127.647 40.3136 127.533 40.4342 127.453 40.5903C127.373 40.7463 127.332 40.926 127.332 41.1294C127.332 41.3328 127.373 41.5125 127.453 41.6686C127.533 41.8246 127.647 41.9476 127.793 42.0375C127.94 42.1226 128.108 42.1652 128.297 42.1652ZM126.602 44.2509V39.4268H127.382V40.342L127.247 41.172L127.382 41.9949V44.2509H126.602ZM132.143 42.903C131.835 42.903 131.556 42.8249 131.306 42.6689C131.06 42.5128 130.863 42.3023 130.717 42.0375C130.575 41.7679 130.504 41.4676 130.504 41.1365C130.504 40.8007 130.575 40.5004 130.717 40.2355C130.863 39.966 131.06 39.7531 131.306 39.5971C131.556 39.4363 131.835 39.3559 132.143 39.3559C132.403 39.3559 132.632 39.4126 132.831 39.5261C133.034 39.6349 133.195 39.7862 133.313 39.9801C133.432 40.1741 133.491 40.394 133.491 40.6399V41.6189C133.491 41.8649 133.432 42.0848 133.313 42.2787C133.2 42.4726 133.041 42.6263 132.838 42.7398C132.635 42.8486 132.403 42.903 132.143 42.903ZM132.27 42.1652C132.559 42.1652 132.791 42.0682 132.966 41.8743C133.145 41.6804 133.235 41.4321 133.235 41.1294C133.235 40.926 133.195 40.7463 133.115 40.5903C133.034 40.4342 132.921 40.3136 132.774 40.2284C132.632 40.1386 132.464 40.0937 132.27 40.0937C132.081 40.0937 131.913 40.1386 131.767 40.2284C131.625 40.3136 131.511 40.4342 131.426 40.5903C131.346 40.7463 131.306 40.926 131.306 41.1294C131.306 41.3328 131.346 41.5125 131.426 41.6686C131.511 41.8246 131.625 41.9476 131.767 42.0375C131.913 42.1226 132.081 42.1652 132.27 42.1652ZM133.186 42.832V41.9169L133.32 41.0868L133.186 40.2639V39.4268H133.966V42.832H133.186ZM137.166 42.832V40.8669C137.166 40.6399 137.093 40.4531 136.946 40.3065C136.804 40.1599 136.62 40.0866 136.393 40.0866C136.241 40.0866 136.107 40.1197 135.988 40.1859C135.87 40.2521 135.778 40.3443 135.712 40.4626C135.646 40.5808 135.612 40.7156 135.612 40.8669L135.307 40.6967C135.307 40.4365 135.364 40.2072 135.478 40.0085C135.591 39.8052 135.747 39.6467 135.946 39.5332C136.149 39.415 136.376 39.3559 136.627 39.3559C136.882 39.3559 137.109 39.4221 137.308 39.5545C137.507 39.6822 137.663 39.8501 137.776 40.0582C137.89 40.2616 137.946 40.4744 137.946 40.6967V42.832H137.166ZM134.832 42.832V39.4268H135.612V42.832H134.832ZM138.747 42.832V39.4268H139.527V42.832H138.747ZM139.137 38.8025C139.004 38.8025 138.893 38.7576 138.803 38.6677C138.718 38.5779 138.676 38.4667 138.676 38.3343C138.676 38.2019 138.718 38.0907 138.803 38.0009C138.893 37.911 139.004 37.8661 139.137 37.8661C139.274 37.8661 139.385 37.911 139.47 38.0009C139.555 38.0907 139.598 38.2019 139.598 38.3343C139.598 38.4667 139.555 38.5779 139.47 38.6677C139.385 38.7576 139.274 38.8025 139.137 38.8025ZM141.963 42.903C141.632 42.903 141.331 42.8249 141.062 42.6689C140.792 42.5081 140.577 42.2929 140.416 42.0233C140.26 41.7537 140.182 41.4534 140.182 41.1223C140.182 40.7913 140.26 40.4933 140.416 40.2284C140.577 39.9636 140.792 39.7531 141.062 39.5971C141.331 39.4363 141.632 39.3559 141.963 39.3559C142.299 39.3559 142.601 39.4339 142.871 39.59C143.141 39.746 143.353 39.9589 143.509 40.2284C143.67 40.4933 143.751 40.7913 143.751 41.1223C143.751 41.4534 143.67 41.7537 143.509 42.0233C143.353 42.2929 143.141 42.5081 142.871 42.6689C142.601 42.8249 142.299 42.903 141.963 42.903ZM141.963 42.151C142.157 42.151 142.327 42.1084 142.474 42.0233C142.625 41.9334 142.741 41.8105 142.821 41.6544C142.906 41.4983 142.949 41.321 142.949 41.1223C142.949 40.9237 142.906 40.7487 142.821 40.5973C142.736 40.446 142.62 40.3278 142.474 40.2426C142.327 40.1528 142.157 40.1078 141.963 40.1078C141.774 40.1078 141.603 40.1528 141.452 40.2426C141.305 40.3278 141.19 40.446 141.104 40.5973C141.024 40.7487 140.984 40.9237 140.984 41.1223C140.984 41.321 141.024 41.4983 141.104 41.6544C141.19 41.8105 141.305 41.9334 141.452 42.0233C141.603 42.1084 141.774 42.151 141.963 42.151ZM146.734 42.832V40.8669C146.734 40.6399 146.66 40.4531 146.514 40.3065C146.372 40.1599 146.187 40.0866 145.96 40.0866C145.809 40.0866 145.674 40.1197 145.556 40.1859C145.438 40.2521 145.345 40.3443 145.279 40.4626C145.213 40.5808 145.18 40.7156 145.18 40.8669L144.875 40.6967C144.875 40.4365 144.932 40.2072 145.045 40.0085C145.159 39.8052 145.315 39.6467 145.513 39.5332C145.717 39.415 145.944 39.3559 146.194 39.3559C146.45 39.3559 146.677 39.4221 146.875 39.5545C147.074 39.6822 147.23 39.8501 147.344 40.0582C147.457 40.2616 147.514 40.4744 147.514 40.6967V42.832H146.734ZM144.4 42.832V39.4268H145.18V42.832H144.4Z" fill="#591958"/>
<defs>
<linearGradient id="paint0_linear_57_679" x1="38.3747" y1="24.1983" x2="2.86282" y2="19.1961" gradientUnits="userSpaceOnUse">
<stop stop-color="#4D164F"/>
<stop offset="1" stop-color="#681E65"/>
</linearGradient>
<linearGradient id="paint1_linear_57_679" x1="40.2938" y1="3.69682" x2="4.15743" y2="41.9842" gradientUnits="userSpaceOnUse">
<stop stop-color="#B428B4"/>
<stop offset="0.281679" stop-color="#571D57"/>
<stop offset="0.542578" stop-color="#5F245F"/>
<stop offset="0.80316" stop-color="#B428B4"/>
<stop offset="1" stop-color="#571D57"/>
</linearGradient>
</defs>
</svg>
