<svg width="26" height="25" viewBox="0 0 26 25" fill="none" xmlns="http://www.w3.org/2000/svg">
<path d="M16.1093 24.5625C13.7063 24.5625 11.3032 24.5625 8.90021 24.5625C8.79216 24.5493 8.6841 24.5354 8.57604 24.5229C7.85231 24.4406 7.11978 24.4048 6.4061 24.2684C4.48745 23.9022 2.98658 22.9052 2.00778 21.1888C1.39587 20.1164 1.17976 18.9315 1.07798 17.7196C1.04406 17.3151 1.01579 16.9098 0.984375 16.5053C0.984375 13.7881 0.984375 11.071 0.984375 8.35383C0.997568 8.23823 1.01139 8.12326 1.02458 8.00767C1.10563 7.29147 1.14395 6.56711 1.27462 5.85971C1.7747 3.15199 3.70089 1.24025 6.39919 0.713158C7.42259 0.513377 8.45793 0.496415 9.4939 0.475683C9.68866 0.471913 9.88341 0.451181 10.0782 0.437988C12.0885 0.437988 14.0989 0.437988 16.1093 0.437988C16.2412 0.449925 16.3725 0.464374 16.5044 0.47317C17.4889 0.540392 18.4828 0.54102 19.4559 0.686144C22.2767 1.10644 24.1558 2.90007 24.7866 5.67501C25.0071 6.64564 25.0466 7.63072 25.0661 8.61895C25.0718 8.92301 25.0944 9.22708 25.1088 9.53178C25.1088 11.5422 25.1088 13.5525 25.1088 15.5629C25.0944 15.8437 25.0724 16.1239 25.0667 16.4047C25.0473 17.3942 25.0133 18.3818 24.7771 19.3493C24.1489 21.922 22.5777 23.5736 19.9899 24.2125C19.0099 24.4544 18.0041 24.4946 16.9995 24.5191C16.7023 24.5273 16.4058 24.548 16.1093 24.5625ZM22.893 12.1453C22.9037 12.1453 22.9144 12.1453 22.9244 12.1453C22.9244 11.2582 22.9527 10.3692 22.9169 9.48341C22.8742 8.41854 22.8516 7.34424 22.6882 6.29445C22.4212 4.57935 21.4198 3.43156 19.7148 2.99305C19.0356 2.81839 18.3282 2.69275 17.629 2.66448C15.9673 2.59788 14.3031 2.59223 12.6395 2.58218C11.4383 2.57464 10.2365 2.59097 9.03529 2.61107C8.15638 2.62552 7.27872 2.66573 6.41929 2.88813C4.94795 3.26884 3.96852 4.15906 3.52247 5.626C3.21086 6.65129 3.12731 7.708 3.11977 8.76784C3.10155 11.3122 3.09338 13.8566 3.11977 16.4003C3.12793 17.1655 3.20269 17.9408 3.35284 18.6909C3.72853 20.5725 4.85623 21.7674 6.77362 22.1073C7.56583 22.248 8.37815 22.3259 9.1823 22.3397C11.459 22.3787 13.7364 22.3931 16.0132 22.3693C17.0617 22.358 18.1184 22.297 19.1556 22.1469C21.0033 21.8792 22.2397 20.717 22.6267 18.9315C22.7787 18.2304 22.8648 17.5035 22.8824 16.7861C22.9194 15.2394 22.893 13.692 22.893 12.1453Z" fill="#395071"/>
<path d="M13.043 6.00517C16.634 6.00319 19.5291 8.89289 19.5416 12.4923C19.5548 16.0845 16.6373 19.0005 13.0364 18.9953C9.44337 18.99 6.54958 16.0904 6.55156 12.4982C6.5542 8.90542 9.45194 6.00649 13.043 6.00517ZM13.068 8.2887C10.7343 8.27616 8.84245 10.1448 8.83189 12.4732C8.82134 14.8114 10.6841 16.7018 13.0113 16.7157C15.3615 16.7289 17.2514 14.8609 17.2593 12.5174C17.2666 10.1798 15.4044 8.30057 13.068 8.2887Z" fill="#395071"/>
<path d="M20.4695 6.00416C20.4695 6.52334 20.0546 6.93585 19.535 6.93302C19.0267 6.93019 18.6134 6.51324 18.6138 6.00376C18.6142 5.48539 19.0299 5.07409 19.5503 5.07733C20.0643 5.08056 20.4695 5.48943 20.4695 6.00416Z" fill="#395071"/>
</svg>
