<svg width="25" height="25" viewBox="0 0 25 25" fill="none" xmlns="http://www.w3.org/2000/svg">
<path id="Vector" d="M11.4988 0.5C11.999 0.5 12.4986 0.5 12.9988 0.5C13.0588 0.513125 13.1183 0.533751 13.1792 0.538438C15.0476 0.678128 16.797 1.21439 18.3907 2.1955C21.4881 4.10241 23.3964 6.84559 24.0648 10.4321C24.1459 10.8675 24.1886 11.3105 24.249 11.7498C24.249 12.2499 24.249 12.7496 24.249 13.2498C24.2298 13.4035 24.2082 13.5573 24.1918 13.7115C23.935 16.0848 23.0748 18.2144 21.5599 20.0604C19.676 22.3559 17.2662 23.7819 14.3389 24.3144C13.8955 24.395 13.446 24.4391 12.9992 24.5C12.4991 24.5 11.9994 24.5 11.4993 24.5C11.2063 24.4639 10.9129 24.4325 10.6209 24.3912C8.40699 24.0762 6.41859 23.2329 4.69034 21.8117C2.39586 19.9258 0.967134 17.5192 0.435582 14.5914C0.354959 14.1475 0.310428 13.6974 0.249023 13.2502C0.249023 12.7501 0.249023 12.2504 0.249023 11.7502C0.268242 11.5965 0.288866 11.4432 0.305741 11.289C0.583236 8.74688 1.54462 6.49918 3.24006 4.58289C5.10471 2.47582 7.42685 1.16517 10.2046 0.680941C10.6335 0.606408 11.0676 0.559532 11.4988 0.5ZM13.2997 18.6325C13.2997 17.8774 13.2974 17.1442 13.3002 16.4111C13.3039 15.4192 13.2992 14.4273 13.3217 13.4363C13.3339 12.8982 13.6194 12.4871 14.0558 12.1946C14.9019 11.6283 15.9706 12.0076 16.2453 12.9835C16.3367 13.3088 16.3671 13.6599 16.37 13.9998C16.3831 15.46 16.3756 16.9206 16.3756 18.3813C16.3756 18.4638 16.3756 18.5458 16.3756 18.6255C17.3665 18.6255 18.3237 18.6255 19.2869 18.6255C19.2907 18.5486 19.2963 18.4872 19.2963 18.4254C19.2968 16.8241 19.3001 15.2233 19.2935 13.6224C19.2921 13.3032 19.2691 12.9826 19.2312 12.6652C19.0268 10.9435 17.9965 9.85643 16.3381 9.66705C15.1437 9.53065 14.1327 9.89347 13.4206 10.9177C13.3972 10.9515 13.3649 10.9786 13.2988 11.0485C13.2988 10.6866 13.2899 10.3763 13.302 10.0669C13.3091 9.89393 13.2561 9.83815 13.0785 9.84003C12.2427 9.84893 11.4074 9.84331 10.5716 9.84471C10.5116 9.84471 10.4516 9.85643 10.393 9.86253C10.393 12.7946 10.393 15.7112 10.393 18.6325C11.3619 18.6325 12.3125 18.6325 13.2997 18.6325ZM8.75292 18.6344C8.75808 18.5749 8.76417 18.5369 8.76417 18.4989C8.76464 15.6789 8.76323 12.8593 8.76839 10.0392C8.76886 9.85737 8.68683 9.84096 8.54152 9.84143C7.71372 9.84565 6.88546 9.84331 6.05766 9.84424C5.98969 9.84424 5.92219 9.85409 5.85376 9.85971C5.85376 12.7956 5.85376 15.7117 5.85376 18.6339C6.82358 18.6344 7.77559 18.6344 8.75292 18.6344ZM5.67095 7.1306C5.67189 8.02077 6.35344 8.65453 7.30404 8.64985C8.26168 8.64516 8.95729 8.00905 8.95635 7.13904C8.95542 6.25074 8.27434 5.61135 7.32654 5.60947C6.35203 5.60807 5.67048 6.23433 5.67095 7.1306Z" fill="#395071"/>
</svg>
