<svg width="44" height="44" viewBox="0 0 44 44" fill="none" xmlns="http://www.w3.org/2000/svg">
<g id="Group 1171278281">
<circle id="Ellipse 53" cx="22" cy="22" r="22" transform="matrix(-1 0 0 1 44 0)" fill="#080515"/>
<path id="path9429" d="M18.529 11.0004C18.231 10.9935 17.9383 11.0835 17.6916 11.2579C17.445 11.4323 17.2567 11.6825 17.1528 11.9735C17.049 12.2646 17.0348 12.582 17.1123 12.8818C17.1897 13.1816 17.3549 13.4487 17.585 13.6462L26.3619 21.4759L17.585 29.3028C17.4258 29.4246 17.2926 29.5792 17.1935 29.7571C17.0945 29.935 17.0317 30.1323 17.0093 30.3366C16.9869 30.5409 17.0052 30.7478 17.0631 30.9444C17.121 31.141 17.2172 31.3231 17.3458 31.4791C17.4744 31.6352 17.6326 31.7618 17.8104 31.8512C17.9882 31.9407 18.1818 31.991 18.3792 31.9989C18.5765 32.0068 18.7733 31.9723 18.9572 31.8974C19.1411 31.8225 19.3082 31.7088 19.4479 31.5636L29.4967 22.6106C29.6545 22.4704 29.7812 22.2963 29.8681 22.1002C29.955 21.904 30 21.6905 30 21.4745C30 21.2584 29.955 21.0449 29.8681 20.8488C29.7812 20.6526 29.6545 20.4784 29.4967 20.3382L19.4479 11.3766C19.1941 11.1418 18.8685 11.0087 18.529 11.0004Z" fill="gray"/>
</g>
</svg>