<svg width="73" height="73" viewBox="0 0 73 73" fill="none" xmlns="http://www.w3.org/2000/svg">
<g id="password (1) 1" clip-path="url(#clip0_8_8367)">
<g id="g1041">
<g id="g1043">
<g id="Clip path group">
<mask id="mask0_8_8367" style="mask-type:luminance" maskUnits="userSpaceOnUse" x="-1" y="0" width="74" height="73">
<g id="clipPath1049">
<path id="path1047" d="M-0.00195312 7.62939e-06H72.998V73H-0.00195312V7.62939e-06Z" fill="white"/>
</g>
</mask>
<g mask="url(#mask0_8_8367)">
<g id="g1045">
<g id="g1051">
<path id="path1053" d="M25.383 42.2031H16.8242C9.10732 42.2031 2.85156 48.4589 2.85156 56.1758C2.85156 63.8927 9.10732 70.1484 16.8242 70.1484H56.1758C63.8927 70.1484 70.1484 63.8927 70.1484 56.1758C70.1484 48.4589 63.8927 42.2031 56.1758 42.2031H46.4756" stroke="#681E65" stroke-width="5.70312" stroke-miterlimit="10" stroke-linecap="round" stroke-linejoin="round"/>
</g>
<g id="g1055">
<path id="path1057" d="M55.748 52.6113C53.7795 52.6113 52.1836 54.2072 52.1836 56.1758C52.1836 58.1444 53.7795 59.7402 55.748 59.7402C57.7166 59.7402 59.3125 58.1444 59.3125 56.1758C59.3125 54.2072 57.7166 52.6113 55.748 52.6113ZM42.916 52.6113C40.9474 52.6113 39.3516 54.2072 39.3516 56.1758C39.3516 58.1444 40.9474 59.7402 42.916 59.7402C44.8846 59.7402 46.4805 58.1444 46.4805 56.1758C46.4805 54.2072 44.8846 52.6113 42.916 52.6113ZM17.252 52.6113C15.2834 52.6113 13.6875 54.2072 13.6875 56.1758C13.6875 58.1444 15.2834 59.7402 17.252 59.7402C19.2205 59.7402 20.8164 58.1444 20.8164 56.1758C20.8164 54.2072 19.2205 52.6113 17.252 52.6113ZM33.6484 56.1758C33.6484 58.1444 32.0526 59.7402 30.084 59.7402C28.1154 59.7402 26.5195 58.1444 26.5195 56.1758C26.5195 54.2072 28.1154 52.6113 30.084 52.6113C32.0526 52.6113 33.6484 54.2072 33.6484 56.1758Z" fill="#681E65"/>
</g>
<g id="g1059">
<path id="path1061" d="M39.4941 36.3574C39.4941 38.326 37.8983 39.9219 35.9297 39.9219C33.9611 39.9219 32.3652 38.326 32.3652 36.3574C32.3652 34.3888 33.9611 32.793 35.9297 32.793C37.8983 32.793 39.4941 34.3888 39.4941 36.3574Z" fill="#681E65"/>
</g>
<g id="g1063">
<path id="path1065" d="M35.9354 25.6641V25.5229C35.9354 21.611 37.9276 17.9239 41.2885 15.9133C43.4786 14.603 44.7695 12.4715 44.7695 10.0647C44.7695 6.08096 41.5679 2.85156 37.5782 2.85156C34.5039 2.85156 31.082 4.41992 28.2305 7.69922" stroke="#681E65" stroke-width="5.70312" stroke-miterlimit="10" stroke-linecap="round" stroke-linejoin="round"/>
</g>
</g>
</g>
</g>
</g>
</g>
</g>
<defs>
<clipPath id="clip0_8_8367">
<rect width="73" height="73" fill="white"/>
</clipPath>
</defs>
</svg>
