<svg width="20" height="20" viewBox="0 0 20 20" fill="none" xmlns="http://www.w3.org/2000/svg">
<g id="phone-call (1) 1" clip-path="url(#clip0_8_19761)">
<g id="Group">
<g id="Group_2">
<path id="Vector" d="M17.07 2.92787C13.1642 -0.976782 6.83251 -0.975845 2.92787 2.93001C-0.976782 6.83587 -0.975845 13.1675 2.93001 17.0722C6.83587 20.9768 13.1675 20.9759 17.0722 17.07C18.9474 15.1942 20.0006 12.6502 20 9.99787C19.9995 7.34591 18.9455 4.80279 17.07 2.92787ZM15.1447 13.9299C15.1442 13.9303 15.1438 13.9308 15.1433 13.9312V13.9279L14.6367 14.4312C13.9814 15.0948 13.027 15.3678 12.12 15.1512C11.2061 14.9066 10.3374 14.5172 9.54666 13.9979C8.81205 13.5284 8.13126 12.9796 7.51666 12.3612C6.95115 11.7999 6.4431 11.1835 5.99998 10.5212C5.51529 9.80865 5.13166 9.0324 4.85998 8.21455C4.54853 7.25377 4.80662 6.19951 5.52666 5.49123L6.11998 4.89791C6.28494 4.7322 6.55298 4.73162 6.71865 4.89658C6.71908 4.89701 6.71955 4.89744 6.71998 4.89791L8.5933 6.77123C8.759 6.93619 8.75959 7.20423 8.59462 7.3699C8.59419 7.37033 8.59377 7.37076 8.5933 7.37123L7.4933 8.47123C7.17767 8.78341 7.13798 9.27951 7.39998 9.63791C7.79783 10.1839 8.2381 10.6977 8.71666 11.1746C9.25021 11.7104 9.83025 12.1979 10.45 12.6313C10.8081 12.881 11.2935 12.8389 11.6033 12.5313L12.6666 11.4513C12.8316 11.2856 13.0996 11.285 13.2653 11.4499C13.2657 11.4504 13.2661 11.4508 13.2666 11.4513L15.1433 13.3313C15.309 13.4962 15.3096 13.7642 15.1447 13.9299Z" fill="white"/>
</g>
</g>
</g>
<defs>
<clipPath id="clip0_8_19761">
<rect width="20" height="20" fill="white"/>
</clipPath>
</defs>
</svg>
