<svg width="20" height="20" viewBox="0 0 20 20" fill="none" xmlns="http://www.w3.org/2000/svg">
<rect width="20" height="20" fill="#171717"/>
<path d="M-2638 -2608C-2638 -2718.46 -2548.46 -2808 -2438 -2808H22940C23050.5 -2808 23140 -2718.46 23140 -2608V3849C23140 3959.46 23050.5 4049 22940 4049H-2438C-2548.46 4049 -2638 3959.46 -2638 3849V-2608Z" fill="#2C2C2C"/>
<path d="M-2438 -2807H22940V-2809H-2438V-2807ZM23139 -2608V3849H23141V-2608H23139ZM22940 4048H-2438V4050H22940V4048ZM-2637 3849V-2608H-2639V3849H-2637ZM-2438 4048C-2547.9 4048 -2637 3958.9 -2637 3849H-2639C-2639 3960.01 -2549.01 4050 -2438 4050V4048ZM23139 3849C23139 3958.9 23049.9 4048 22940 4048V4050C23051 4050 23141 3960.01 23141 3849H23139ZM22940 -2807C23049.9 -2807 23139 -2717.9 23139 -2608H23141C23141 -2719.01 23051 -2809 22940 -2809V-2807ZM-2438 -2809C-2549.01 -2809 -2639 -2719.01 -2639 -2608H-2637C-2637 -2717.9 -2547.9 -2807 -2438 -2807V-2809Z" fill="white" fill-opacity="0.1"/>
<g clip-path="url(#clip0_0_1)">
<rect x="-309" y="-1985" width="1440" height="3118" rx="50" fill="white"/>
<path d="M-235.25 -96C-235.25 -109.393 -224.393 -120.25 -211 -120.25H370C383.393 -120.25 394.25 -109.393 394.25 -96V147C394.25 160.393 383.393 171.25 370 171.25H-211C-224.393 171.25 -235.25 160.393 -235.25 147V-96Z" fill="white" stroke="#DFDFDF" stroke-width="1.5"/>
<g clip-path="url(#clip1_0_1)">
<path d="M17.07 2.92787C13.1642 -0.976782 6.83251 -0.975845 2.92787 2.93001C-0.976782 6.83587 -0.975845 13.1675 2.93001 17.0722C6.83587 20.9768 13.1675 20.9759 17.0722 17.07C18.9474 15.1942 20.0006 12.6502 20 9.99787C19.9995 7.34591 18.9455 4.80279 17.07 2.92787ZM15.1447 13.9299C15.1442 13.9303 15.1438 13.9308 15.1433 13.9312V13.9279L14.6367 14.4312C13.9814 15.0948 13.027 15.3678 12.12 15.1512C11.2061 14.9066 10.3374 14.5172 9.54666 13.9979C8.81205 13.5284 8.13126 12.9796 7.51666 12.3612C6.95115 11.7999 6.4431 11.1835 5.99998 10.5212C5.51529 9.80865 5.13166 9.0324 4.85998 8.21455C4.54853 7.25377 4.80662 6.19951 5.52666 5.49123L6.11998 4.89791C6.28494 4.7322 6.55298 4.73162 6.71865 4.89658C6.71908 4.89701 6.71955 4.89744 6.71998 4.89791L8.5933 6.77123C8.759 6.93619 8.75959 7.20423 8.59462 7.3699C8.59419 7.37033 8.59377 7.37076 8.5933 7.37123L7.4933 8.47123C7.17767 8.78341 7.13798 9.27951 7.39998 9.63791C7.79783 10.1839 8.2381 10.6977 8.71666 11.1746C9.25021 11.7104 9.83025 12.1979 10.45 12.6313C10.8081 12.881 11.2935 12.8389 11.6033 12.5313L12.6666 11.4513C12.8316 11.2856 13.0996 11.285 13.2653 11.4499C13.2657 11.4504 13.2661 11.4508 13.2666 11.4513L15.1433 13.3313C15.309 13.4962 15.3096 13.7642 15.1447 13.9299Z" fill="#080515" fill-opacity="0.4"/>
</g>
</g>
<defs>
<clipPath id="clip0_0_1">
<rect x="-309" y="-1985" width="1440" height="3118" rx="50" fill="white"/>
</clipPath>
<clipPath id="clip1_0_1">
<rect width="20" height="20" fill="white"/>
</clipPath>
</defs>
</svg>
