<svg width="44" height="44" viewBox="0 0 44 44" fill="none" xmlns="http://www.w3.org/2000/svg">
<g id="Group 1171278280">
<circle id="Ellipse 53" cx="22" cy="22" r="22" fill="#080515"/>
<path id="path9429" d="M25.471 11.0004C25.769 10.9935 26.0617 11.0835 26.3084 11.2579C26.555 11.4323 26.7433 11.6825 26.8472 11.9735C26.951 12.2646 26.9652 12.582 26.8877 12.8818C26.8103 13.1816 26.6451 13.4487 26.415 13.6462L17.6381 21.4759L26.415 29.3028C26.5742 29.4246 26.7074 29.5792 26.8065 29.7571C26.9055 29.935 26.9683 30.1323 26.9907 30.3366C27.0131 30.5409 26.9948 30.7478 26.9369 30.9444C26.879 31.141 26.7828 31.3231 26.6542 31.4791C26.5256 31.6352 26.3674 31.7618 26.1896 31.8512C26.0118 31.9407 25.8182 31.991 25.6208 31.9989C25.4235 32.0068 25.2267 31.9723 25.0428 31.8974C24.8589 31.8225 24.6918 31.7088 24.5521 31.5636L14.5033 22.6106C14.3455 22.4704 14.2188 22.2963 14.1319 22.1002C14.045 21.904 14 21.6905 14 21.4745C14 21.2584 14.045 21.0449 14.1319 20.8488C14.2188 20.6526 14.3455 20.4784 14.5033 20.3382L24.5521 11.3766C24.8059 11.1418 25.1315 11.0087 25.471 11.0004Z" fill="gray"/>
</g>
</svg>