<svg width="26" height="25" viewBox="0 0 26 25" fill="none" xmlns="http://www.w3.org/2000/svg">
<rect width="26" height="25" fill="#171717"/>
<g id="Guest User Pages">
<path d="M-1900 -4504C-1900 -4614.46 -1810.46 -4704 -1700 -4704H23678C23788.5 -4704 23878 -4614.46 23878 -4504V1953C23878 2063.46 23788.5 2153 23678 2153H-1700C-1810.46 2153 -1900 2063.46 -1900 1953V-4504Z" fill="#2C2C2C"/>
<path d="M-1700 -4703H23678V-4705H-1700V-4703ZM23877 -4504V1953H23879V-4504H23877ZM23678 2152H-1700V2154H23678V2152ZM-1899 1953V-4504H-1901V1953H-1899ZM-1700 2152C-1809.9 2152 -1899 2062.9 -1899 1953H-1901C-1901 2064.01 -1811.01 2154 -1700 2154V2152ZM23877 1953C23877 2062.9 23787.9 2152 23678 2152V2154C23789 2154 23879 2064.01 23879 1953H23877ZM23678 -4703C23787.9 -4703 23877 -4613.9 23877 -4504H23879C23879 -4615.01 23789 -4705 23678 -4705V-4703ZM-1700 -4705C-1811.01 -4705 -1901 -4615.01 -1901 -4504H-1899C-1899 -4613.9 -1809.9 -4703 -1700 -4703V-4705Z" fill="white" fill-opacity="0.1"/>
<g id="Landing Page">
<g clip-path="url(#clip0_0_1)">
<rect x="-1211" y="-3881" width="1440" height="4038" rx="50" fill="white"/>
<g id="Group 1171275685">
<g id="Group 1171275713">
<g id="Group 1171278439">
<g id="Group 41648">
<rect id="Rectangle 420" x="-1212" y="-276" width="1441" height="433" fill="#161E29"/>
</g>
<g id="Frame 34452">
<g id="Frame 34449">
<g id="telegram" clip-path="url(#clip1_0_1)">
<path id="Vector" d="M10.5537 15.8141L10.1402 21.6308C10.7318 21.6308 10.9881 21.3766 11.2954 21.0714L14.0693 18.4204L19.8172 22.6298C20.8714 23.2173 21.6141 22.9079 21.8985 21.66L25.6714 3.98079L25.6724 3.97975C26.0068 2.42142 25.1089 1.81204 24.0818 2.19434L1.90474 10.685C0.391201 11.2725 0.414118 12.1162 1.64745 12.4985L7.31724 14.262L20.487 6.02142C21.1068 5.611 21.6704 5.83809 21.2068 6.2485L10.5537 15.8141Z" fill="#395071"/>
</g>
</g>
</g>
</g>
<g id="Frame 34452_2">
<g id="Frame 34449_2">
<g id="telegram_2" clip-path="url(#clip2_0_1)">
<path id="Vector_2" d="M10.5537 15.8141L10.1402 21.6308C10.7318 21.6308 10.9881 21.3766 11.2954 21.0714L14.0693 18.4204L19.8172 22.6298C20.8714 23.2173 21.6141 22.9079 21.8985 21.66L25.6714 3.98079L25.6724 3.97975C26.0068 2.42142 25.1089 1.81204 24.0818 2.19434L1.90474 10.685C0.391201 11.2725 0.414118 12.1162 1.64745 12.4985L7.31724 14.262L20.487 6.02142C21.1068 5.611 21.6704 5.83809 21.2068 6.2485L10.5537 15.8141Z" fill="#395071"/>
</g>
</g>
</g>
</g>
</g>
</g>
</g>
</g>
<defs>
<clipPath id="clip0_0_1">
<rect x="-1211" y="-3881" width="1440" height="4038" rx="50" fill="white"/>
</clipPath>
<clipPath id="clip1_0_1">
<rect width="25" height="25" fill="white" transform="translate(0.744141)"/>
</clipPath>
<clipPath id="clip2_0_1">
<rect width="25" height="25" fill="white" transform="translate(0.744141)"/>
</clipPath>
</defs>
</svg>
