<svg width="26" height="25" viewBox="0 0 26 25" fill="none" xmlns="http://www.w3.org/2000/svg">
<g clip-path="url(#clip0_8_446)">
<path d="M25.3652 4.74746C24.4355 5.15527 23.4449 5.42559 22.4121 5.55684C23.4746 4.92246 24.2855 3.92559 24.6668 2.72402C23.6762 3.31465 22.5824 3.73184 21.4168 3.96465C20.4762 2.96309 19.1355 2.34277 17.673 2.34277C14.8355 2.34277 12.5512 4.6459 12.5512 7.46934C12.5512 7.87559 12.5855 8.26621 12.6699 8.63809C8.40898 8.43027 4.63867 6.38809 2.10586 3.27715C1.66367 4.04434 1.4043 4.92246 1.4043 5.86777C1.4043 7.64277 2.31836 9.21621 3.68086 10.1271C2.85742 10.1115 2.04961 9.87246 1.36523 9.4959C1.36523 9.51152 1.36523 9.53184 1.36523 9.55215C1.36523 12.0428 3.1418 14.1115 5.47148 14.5881C5.0543 14.7021 4.59961 14.7568 4.12773 14.7568C3.79961 14.7568 3.46836 14.7381 3.15742 14.6693C3.82148 16.699 5.70586 18.1912 7.94648 18.2396C6.20273 19.6037 3.98867 20.4256 1.5918 20.4256C1.17148 20.4256 0.768359 20.4068 0.365234 20.3553C2.63555 21.8193 5.32617 22.6553 8.22773 22.6553C17.659 22.6553 22.8152 14.8428 22.8152 8.0709C22.8152 7.84434 22.8074 7.62559 22.7965 7.4084C23.8137 6.68652 24.6684 5.78496 25.3652 4.74746Z" fill="#395071"/>
</g>
<defs>
<clipPath id="clip0_8_446">
<rect width="25" height="25" fill="white" transform="translate(0.363281)"/>
</clipPath>
</defs>
</svg>
