<svg width="25" height="25" viewBox="0 0 25 25" fill="none" xmlns="http://www.w3.org/2000/svg">
<rect width="25" height="25" fill="#171717"/>
<g id="Guest User Pages">
<path d="M-1846 -4504C-1846 -4614.46 -1756.46 -4704 -1646 -4704H23732C23842.5 -4704 23932 -4614.46 23932 -4504V1953C23932 2063.46 23842.5 2153 23732 2153H-1646C-1756.46 2153 -1846 2063.46 -1846 1953V-4504Z" fill="#2C2C2C"/>
<path d="M-1646 -4703H23732V-4705H-1646V-4703ZM23931 -4504V1953H23933V-4504H23931ZM23732 2152H-1646V2154H23732V2152ZM-1845 1953V-4504H-1847V1953H-1845ZM-1646 2152C-1755.9 2152 -1845 2062.9 -1845 1953H-1847C-1847 2064.01 -1757.01 2154 -1646 2154V2152ZM23931 1953C23931 2062.9 23841.9 2152 23732 2152V2154C23843 2154 23933 2064.01 23933 1953H23931ZM23732 -4703C23841.9 -4703 23931 -4613.9 23931 -4504H23933C23933 -4615.01 23843 -4705 23732 -4705V-4703ZM-1646 -4705C-1757.01 -4705 -1847 -4615.01 -1847 -4504H-1845C-1845 -4613.9 -1755.9 -4703 -1646 -4703V-4705Z" fill="white" fill-opacity="0.1"/>
<g id="Landing Page">
<g clip-path="url(#clip0_0_1)">
<rect x="-1157" y="-3881" width="1440" height="4038" rx="50" fill="white"/>
<g id="Group 1171275685">
<g id="Group 1171275713">
<g id="Group 1171278439">
<g id="Group 41648">
<rect id="Rectangle 420" x="-1158" y="-276" width="1441" height="433" fill="#161E29"/>
</g>
<g id="Frame 34452">
<g id="Frame 34449">
<g id="Vector">
<path d="M11.4494 0.437988C11.952 0.437988 12.4546 0.437988 12.9572 0.437988C13.2443 0.472541 13.532 0.498926 13.8179 0.542902C16.5238 0.958158 18.859 2.09148 20.7595 4.09112C22.4445 5.86397 23.5282 7.93585 23.9442 10.3495C24.0183 10.7811 24.0654 11.2177 24.1245 11.6518C24.1245 12.1544 24.1245 12.657 24.1245 13.1595C24.11 13.2356 24.0874 13.3116 24.0817 13.3888C23.9768 14.7295 23.6564 16.0161 23.1042 17.243C20.2714 23.5391 12.6638 26.182 6.54833 23.0019C6.44404 22.9479 6.29137 22.9316 6.17766 22.9605C4.75779 23.3198 3.33982 23.688 1.9231 24.0599C1.3118 24.2201 0.703648 24.3947 0.0942386 24.5625C0.0628258 24.531 0.0314129 24.4996 0 24.4682C0.0270151 24.4054 0.060941 24.3445 0.0791605 24.2785C0.603756 22.375 1.12898 20.4721 1.64289 18.5654C1.67493 18.4473 1.6498 18.2852 1.59075 18.1759C0.22366 15.6618 -0.204812 12.9918 0.299679 10.1843C1.2339 4.98696 5.40741 1.44566 10.1036 0.627084C10.5497 0.549184 11.0008 0.500183 11.4494 0.437988ZM2.90067 21.6644C3.00873 21.6418 3.07029 21.6318 3.12998 21.6167C4.23006 21.3315 5.33076 21.0494 6.42896 20.7554C6.60299 20.7089 6.73429 20.7347 6.88696 20.8258C9.18324 22.1991 11.6435 22.6457 14.2627 22.0621C19.2976 20.9395 22.9848 16.1493 21.9369 10.5003C20.9895 5.39908 16.1393 1.85652 10.9939 2.47595C8.02473 2.83341 5.65809 4.23812 3.94609 6.6882C2.51177 8.74186 1.92498 11.033 2.20518 13.5333C2.37984 15.0907 2.92957 16.5124 3.784 17.8191C3.87384 17.9567 3.89583 18.0754 3.84933 18.2318C3.70798 18.7049 3.58044 19.1817 3.44913 19.6579C3.26882 20.3138 3.0904 20.9696 2.90067 21.6644Z" fill="#395071"/>
<path d="M15.2868 18.0792C14.4738 18.1118 13.7827 17.7971 13.0722 17.5521C11.0454 16.8535 9.47978 15.5374 8.14347 13.9078C7.50139 13.125 6.85806 12.3447 6.43461 11.4112C5.98981 10.4305 5.8095 9.42474 6.27252 8.41142C6.47105 7.97669 6.7789 7.58719 7.06413 7.19769C7.23753 6.96147 7.51019 6.85216 7.80547 6.84148C8.07122 6.83143 8.33886 6.83583 8.60462 6.84902C8.84084 6.86096 8.96021 7.03686 9.0444 7.22721C9.23476 7.65692 9.41318 8.09228 9.59601 8.52513C9.74239 8.87191 9.87872 9.22246 10.0358 9.56421C10.1451 9.80168 10.1407 10.0216 9.98804 10.2295C9.76501 10.5317 9.53946 10.8326 9.30387 11.1247C9.05696 11.43 9.0444 11.5199 9.24795 11.8572C10.206 13.4466 11.526 14.617 13.2537 15.3156C13.6244 15.4658 13.75 15.4425 14.0083 15.1297C14.2929 14.7848 14.5737 14.4367 14.8508 14.0862C15.0361 13.8518 15.1536 13.7903 15.4401 13.8996C15.8346 14.0497 16.2178 14.23 16.6017 14.4066C16.8649 14.5272 17.1175 14.6717 17.3826 14.7885C17.5711 14.8715 17.7747 14.9205 17.9675 14.9958C18.1303 15.0593 18.2107 15.19 18.2082 15.3646C18.1968 16.1713 18.0266 16.9025 17.3098 17.4045C16.6878 17.8392 16.0237 18.1219 15.2868 18.0792Z" fill="#395071"/>
</g>
</g>
</g>
</g>
<g id="Frame 34452_2">
<g id="Frame 34449_2">
<g id="Vector_2">
<path d="M11.4494 0.437988C11.952 0.437988 12.4546 0.437988 12.9572 0.437988C13.2443 0.472541 13.532 0.498926 13.8179 0.542902C16.5238 0.958158 18.859 2.09148 20.7595 4.09112C22.4445 5.86397 23.5282 7.93585 23.9442 10.3495C24.0183 10.7811 24.0654 11.2177 24.1245 11.6518C24.1245 12.1544 24.1245 12.657 24.1245 13.1595C24.11 13.2356 24.0874 13.3116 24.0817 13.3888C23.9768 14.7295 23.6564 16.0161 23.1042 17.243C20.2714 23.5391 12.6638 26.182 6.54833 23.0019C6.44404 22.9479 6.29137 22.9316 6.17766 22.9605C4.75779 23.3198 3.33982 23.688 1.9231 24.0599C1.3118 24.2201 0.703648 24.3947 0.0942386 24.5625C0.0628258 24.531 0.0314129 24.4996 0 24.4682C0.0270151 24.4054 0.060941 24.3445 0.0791605 24.2785C0.603756 22.375 1.12898 20.4721 1.64289 18.5654C1.67493 18.4473 1.6498 18.2852 1.59075 18.1759C0.22366 15.6618 -0.204812 12.9918 0.299679 10.1843C1.2339 4.98696 5.40741 1.44566 10.1036 0.627084C10.5497 0.549184 11.0008 0.500183 11.4494 0.437988ZM2.90067 21.6644C3.00873 21.6418 3.07029 21.6318 3.12998 21.6167C4.23006 21.3315 5.33076 21.0494 6.42896 20.7554C6.60299 20.7089 6.73429 20.7347 6.88696 20.8258C9.18324 22.1991 11.6435 22.6457 14.2627 22.0621C19.2976 20.9395 22.9848 16.1493 21.9369 10.5003C20.9895 5.39908 16.1393 1.85652 10.9939 2.47595C8.02473 2.83341 5.65809 4.23812 3.94609 6.6882C2.51177 8.74186 1.92498 11.033 2.20518 13.5333C2.37984 15.0907 2.92957 16.5124 3.784 17.8191C3.87384 17.9567 3.89583 18.0754 3.84933 18.2318C3.70798 18.7049 3.58044 19.1817 3.44913 19.6579C3.26882 20.3138 3.0904 20.9696 2.90067 21.6644Z" fill="#395071"/>
<path d="M15.2868 18.0792C14.4738 18.1118 13.7827 17.7971 13.0722 17.5521C11.0454 16.8535 9.47978 15.5374 8.14347 13.9078C7.50139 13.125 6.85806 12.3447 6.43461 11.4112C5.98981 10.4305 5.8095 9.42474 6.27252 8.41142C6.47105 7.97669 6.7789 7.58719 7.06413 7.19769C7.23753 6.96147 7.51019 6.85216 7.80547 6.84148C8.07122 6.83143 8.33886 6.83583 8.60462 6.84902C8.84084 6.86096 8.96021 7.03686 9.0444 7.22721C9.23476 7.65692 9.41318 8.09228 9.59601 8.52513C9.74239 8.87191 9.87872 9.22246 10.0358 9.56421C10.1451 9.80168 10.1407 10.0216 9.98804 10.2295C9.76501 10.5317 9.53946 10.8326 9.30387 11.1247C9.05696 11.43 9.0444 11.5199 9.24795 11.8572C10.206 13.4466 11.526 14.617 13.2537 15.3156C13.6244 15.4658 13.75 15.4425 14.0083 15.1297C14.2929 14.7848 14.5737 14.4367 14.8508 14.0862C15.0361 13.8518 15.1536 13.7903 15.4401 13.8996C15.8346 14.0497 16.2178 14.23 16.6017 14.4066C16.8649 14.5272 17.1175 14.6717 17.3826 14.7885C17.5711 14.8715 17.7747 14.9205 17.9675 14.9958C18.1303 15.0593 18.2107 15.19 18.2082 15.3646C18.1968 16.1713 18.0266 16.9025 17.3098 17.4045C16.6878 17.8392 16.0237 18.1219 15.2868 18.0792Z" fill="#395071"/>
</g>
</g>
</g>
</g>
</g>
</g>
</g>
</g>
<defs>
<clipPath id="clip0_0_1">
<rect x="-1157" y="-3881" width="1440" height="4038" rx="50" fill="white"/>
</clipPath>
</defs>
</svg>
